<?xml version="1.0" standalone="no"?>
<!DOCTYPE svg PUBLIC "-//W3C//DTD SVG 20010904//EN"
 "http://www.w3.org/TR/2001/REC-SVG-20010904/DTD/svg10.dtd">
<svg version="1.0" xmlns="http://www.w3.org/2000/svg"
 width="2560.000000pt" height="1316.000000pt" viewBox="0 0 2560.000000 1316.000000"
 preserveAspectRatio="xMidYMid meet">

<g transform="translate(0.000000,1316.000000) scale(0.100000,-0.100000)"
fill="#000000" stroke="none">
<path d="M12720 12679 c-146 -25 -277 -125 -346 -265 -34 -68 -39 -86 -42
-171 -5 -117 14 -199 67 -281 92 -141 237 -222 401 -222 164 0 309 81 401 222
53 82 73 164 67 280 -5 107 -35 186 -105 274 -98 123 -282 190 -443 163z"/>
<path d="M11033 12555 c-291 -79 -434 -406 -297 -677 15 -29 54 -80 88 -114
183 -182 469 -186 655 -9 270 257 155 706 -204 800 -72 18 -172 18 -242 0z"/>
<path d="M14321 12554 c-181 -48 -317 -203 -344 -389 -37 -256 141 -495 399
-535 348 -54 635 298 512 628 -87 233 -330 360 -567 296z"/>
<path d="M9433 12216 c-80 -20 -161 -66 -222 -126 -230 -228 -168 -612 123
-755 92 -46 185 -62 277 -48 205 32 366 193 401 399 24 147 -31 304 -146 412
-35 32 -83 69 -107 80 -103 49 -221 63 -326 38z"/>
<path d="M15943 12215 c-187 -51 -326 -204 -355 -393 -46 -292 215 -568 508
-538 341 35 538 400 376 700 -98 182 -331 284 -529 231z"/>
<path d="M7900 11659 c-171 -33 -331 -192 -369 -367 -33 -155 16 -319 128
-430 117 -117 274 -164 433 -131 242 50 412 298 369 539 -48 265 -300 440
-561 389z"/>
<path d="M17496 11654 c-236 -57 -397 -296 -358 -531 16 -94 69 -198 138 -266
183 -181 481 -180 663 2 263 263 134 710 -230 796 -78 18 -135 18 -213 -1z"/>
<path d="M11860 11459 c-178 -30 -340 -187 -379 -367 -34 -159 13 -316 129
-432 231 -231 618 -167 757 126 46 97 61 190 44 284 -47 260 -292 433 -551
389z"/>
<path d="M13571 11459 c-125 -21 -254 -113 -323 -230 -184 -311 44 -709 407
-709 127 0 244 49 335 140 63 63 103 131 125 215 68 264 -114 541 -385 584
-74 12 -84 12 -159 0z"/>
<path d="M10120 11172 c-89 -30 -141 -61 -200 -121 -188 -187 -183 -496 10
-674 273 -253 706 -120 786 241 50 224 -76 459 -293 543 -81 31 -226 36 -303
11z"/>
<path d="M15198 11167 c-274 -94 -404 -402 -276 -657 143 -286 518 -354 747
-135 161 153 196 396 85 582 -46 76 -76 107 -148 155 -122 79 -275 100 -408
55z"/>
<path d="M6480 10893 c-257 -28 -450 -283 -410 -542 28 -180 171 -340 345
-386 352 -91 671 228 580 580 -34 127 -128 241 -249 300 -63 30 -173 58 -216
53 -8 -1 -31 -3 -50 -5z"/>
<path d="M18980 10889 c-171 -28 -331 -175 -375 -344 -91 -351 229 -671 580
-580 82 22 144 58 210 124 246 245 151 667 -176 780 -69 23 -168 32 -239 20z"/>
<path d="M8510 10636 c-116 -33 -214 -106 -281 -208 -53 -82 -72 -164 -67
-281 3 -86 8 -102 43 -173 50 -103 121 -174 217 -219 252 -118 522 -20 642
235 39 84 48 216 21 316 -42 157 -176 287 -338 330 -63 17 -176 17 -237 0z"/>
<path d="M16850 10636 c-116 -33 -214 -106 -281 -208 -53 -82 -72 -164 -67
-281 3 -86 8 -102 43 -173 50 -103 121 -174 217 -219 252 -118 523 -19 641
235 40 85 49 217 22 316 -42 157 -176 287 -338 330 -63 17 -176 17 -237 0z"/>
<path d="M11860 10269 c-25 -5 -77 -24 -116 -44 -292 -143 -354 -525 -124
-755 189 -189 485 -186 670 5 184 192 182 475 -4 661 -115 115 -270 163 -426
133z"/>
<path d="M13543 10265 c-183 -40 -334 -202 -364 -391 -38 -239 130 -483 369
-533 160 -34 316 13 432 129 229 229 167 612 -123 754 -112 56 -196 67 -314
41z"/>
<path d="M10207 9969 c-246 -37 -431 -294 -389 -541 59 -341 438 -507 729
-319 99 64 170 166 198 283 38 162 -5 317 -122 439 -106 112 -257 162 -416
138z"/>
<path d="M15237 9969 c-214 -31 -397 -244 -397 -462 0 -113 53 -250 128 -331
15 -16 54 -46 86 -68 290 -189 674 -18 728 325 48 314 -225 583 -545 536z"/>
<path d="M5081 9914 c-119 -32 -243 -129 -295 -232 -124 -245 -34 -528 208
-647 186 -92 394 -59 540 87 192 192 188 492 -8 676 -124 116 -287 159 -445
116z"/>
<path d="M20285 9916 c-183 -46 -327 -204 -355 -390 -39 -254 139 -494 398
-537 96 -16 184 -1 280 47 291 143 352 522 122 755 -115 117 -286 164 -445
125z"/>
<path d="M7040 9853 c-44 -7 -144 -45 -184 -71 -290 -183 -284 -625 10 -802
289 -174 663 2 714 336 48 309 -231 586 -540 537z"/>
<path d="M18378 9845 c-185 -47 -328 -202 -358 -390 -49 -308 224 -583 535
-538 194 28 356 179 396 371 15 76 6 193 -21 265 -46 123 -161 234 -285 277
-79 27 -194 34 -267 15z"/>
<path d="M8558 9361 c-276 -88 -409 -401 -282 -659 163 -332 626 -356 826 -42
87 136 91 341 10 480 -59 102 -163 187 -273 221 -79 25 -203 24 -281 0z"/>
<path d="M16758 9361 c-145 -47 -269 -174 -312 -320 -33 -114 -13 -276 47
-375 43 -69 128 -146 204 -182 233 -113 512 -16 627 218 128 258 -8 573 -283
658 -82 26 -205 26 -283 1z"/>
<path d="M11870 9079 c-25 -5 -77 -24 -116 -44 -154 -76 -264 -249 -264 -417
0 -300 278 -528 572 -467 239 50 410 295 370 534 -44 266 -299 445 -562 394z"/>
<path d="M13526 9074 c-224 -54 -385 -276 -362 -502 29 -283 293 -478 568
-421 260 54 428 321 363 574 -36 136 -128 251 -250 311 -111 54 -206 65 -319
38z"/>
<path d="M5610 8811 c-88 -28 -140 -60 -201 -120 -120 -120 -166 -292 -124
-456 59 -224 295 -381 520 -345 136 22 230 76 310 177 78 100 114 236 95 361
-21 137 -120 281 -237 344 -106 58 -256 74 -363 39z"/>
<path d="M19731 8814 c-171 -46 -313 -207 -341 -385 -48 -312 227 -587 538
-539 182 28 341 170 387 345 66 253 -86 514 -339 581 -65 18 -176 17 -245 -2z"/>
<path d="M3920 8779 c-173 -33 -333 -192 -369 -367 -74 -355 272 -662 614
-546 216 74 355 305 316 524 -48 265 -299 440 -561 389z"/>
<path d="M21491 8780 c-187 -40 -344 -206 -373 -397 -34 -216 97 -434 306
-512 268 -99 567 67 625 347 48 233 -87 469 -314 546 -61 20 -184 28 -244 16z"/>
<path d="M10190 8731 c-150 -48 -254 -147 -308 -292 -95 -258 57 -546 327
-619 24 -6 80 -11 124 -11 135 1 242 47 334 143 181 192 176 478 -11 663 -63
62 -141 107 -217 124 -68 16 -187 12 -249 -8z"/>
<path d="M15156 8739 c-72 -17 -174 -80 -227 -137 -235 -257 -133 -659 197
-772 82 -29 209 -28 295 0 254 86 388 361 297 609 -46 126 -151 234 -275 282
-65 25 -220 35 -287 18z"/>
<path d="M7160 8509 c-177 -29 -340 -187 -379 -367 -62 -292 162 -572 459
-572 237 0 433 167 472 404 28 172 -61 369 -210 465 -96 62 -229 89 -342 70z"/>
<path d="M18285 8510 c-205 -32 -362 -190 -396 -398 -38 -231 117 -467 346
-527 164 -42 337 4 455 124 116 118 163 274 129 433 -40 185 -202 339 -389
368 -72 11 -73 11 -145 0z"/>
<path d="M8710 8090 c-99 -17 -213 -80 -276 -154 -20 -22 -53 -75 -72 -116
-32 -65 -37 -86 -40 -168 -5 -116 15 -198 67 -280 91 -140 238 -222 401 -222
260 0 470 210 470 469 0 232 -151 418 -377 466 -74 16 -104 17 -173 5z"/>
<path d="M16714 8086 c-225 -51 -374 -237 -374 -467 0 -403 483 -619 782 -351
114 103 163 223 156 384 -3 79 -9 103 -36 162 -18 39 -48 89 -67 112 -106 129
-299 196 -461 160z"/>
<path d="M12732 7939 c-122 -15 -252 -96 -322 -201 -128 -193 -102 -449 62
-605 99 -93 197 -133 328 -133 132 0 232 41 328 134 193 186 191 492 -3 681
-56 53 -168 112 -233 120 -26 3 -58 7 -72 9 -14 1 -53 -1 -88 -5z"/>
<path d="M10894 7700 c-276 -88 -411 -403 -282 -660 83 -166 239 -262 428
-261 417 1 625 507 330 802 -124 124 -311 171 -476 119z"/>
<path d="M14430 7701 c-88 -28 -140 -60 -200 -120 -295 -295 -87 -801 330
-802 144 -1 262 50 354 153 232 257 119 666 -212 768 -81 25 -196 26 -272 1z"/>
<path d="M4430 7582 c-169 -44 -298 -179 -336 -351 -60 -268 113 -523 387
-572 304 -54 589 226 541 533 -43 283 -316 462 -592 390z"/>
<path d="M20933 7586 c-237 -60 -396 -301 -354 -536 37 -203 192 -357 397
-392 214 -36 439 99 517 310 27 75 30 222 4 304 -38 125 -158 250 -284 298
-72 27 -206 35 -280 16z"/>
<path d="M2878 7479 c-70 -16 -162 -71 -220 -130 -228 -233 -158 -615 139
-756 68 -33 88 -38 171 -41 160 -7 282 42 381 154 226 257 119 654 -207 763
-66 22 -193 27 -264 10z"/>
<path d="M22474 7476 c-166 -54 -286 -179 -329 -343 -50 -191 36 -404 205
-513 151 -97 365 -94 517 7 305 202 270 662 -63 820 -74 35 -86 38 -184 40
-67 2 -120 -2 -146 -11z"/>
<path d="M5818 7381 c-218 -70 -358 -299 -320 -524 26 -156 124 -286 267 -353
64 -31 89 -37 164 -42 54 -3 109 0 142 8 240 57 401 294 361 533 -30 179 -156
326 -323 378 -80 25 -213 25 -291 0z"/>
<path d="M19488 7381 c-216 -69 -357 -300 -320 -523 27 -158 124 -286 269
-356 77 -36 80 -37 198 -37 118 0 121 1 198 37 145 69 242 198 269 355 38 226
-103 456 -323 524 -80 25 -213 25 -291 0z"/>
<path d="M7355 7138 c-263 -30 -451 -280 -407 -541 65 -383 534 -532 804 -256
140 143 175 356 88 536 -91 185 -278 286 -485 261z"/>
<path d="M18125 7138 c-262 -30 -451 -281 -407 -540 66 -383 529 -533 802
-259 176 176 184 463 17 647 -107 118 -251 171 -412 152z"/>
<path d="M9259 7052 c-249 -65 -399 -325 -334 -577 77 -292 405 -437 677 -299
29 15 80 54 114 88 182 183 186 469 9 655 -123 129 -294 177 -466 133z"/>
<path d="M16101 7055 c-237 -67 -388 -294 -351 -529 15 -99 61 -189 134 -262
133 -133 311 -174 490 -114 125 42 237 150 287 277 33 83 33 252 1 334 -50
125 -158 234 -279 279 -77 29 -208 36 -282 15z"/>
<path d="M12683 6745 c-160 -43 -280 -158 -333 -315 -18 -54 -21 -82 -18 -165
3 -91 7 -107 40 -178 92 -193 298 -303 500 -269 159 28 287 124 356 269 33 71
37 87 40 178 4 114 -15 192 -70 278 -106 166 -326 253 -515 202z"/>
<path d="M10940 6482 c-212 -56 -350 -236 -350 -457 0 -144 50 -258 154 -351
186 -169 470 -161 649 17 144 144 179 365 87 549 -99 197 -325 298 -540 242z"/>
<path d="M14419 6482 c-136 -36 -243 -127 -308 -262 -35 -73 -36 -78 -36 -195
0 -118 1 -121 37 -198 138 -289 510 -366 744 -154 104 94 154 208 154 352 0
144 -50 258 -153 351 -121 108 -280 147 -438 106z"/>
<path d="M3428 6167 c-129 -44 -221 -126 -277 -248 -110 -237 -10 -514 226
-626 68 -33 88 -38 171 -41 160 -7 281 42 383 156 193 214 144 555 -102 713
-112 71 -272 90 -401 46z"/>
<path d="M21878 6171 c-322 -103 -434 -512 -210 -763 103 -114 223 -163 384
-156 83 3 103 8 171 41 143 67 242 201 267 360 36 229 -118 463 -344 523 -72
19 -199 17 -268 -5z"/>
<path d="M4775 6067 c-233 -78 -373 -297 -338 -527 21 -133 102 -259 213 -330
190 -122 459 -84 608 85 209 238 133 606 -154 742 -71 34 -85 37 -183 40 -70
2 -120 -2 -146 -10z"/>
<path d="M20578 6069 c-173 -40 -318 -202 -350 -387 -48 -282 175 -542 466
-542 145 0 258 49 353 154 272 301 55 790 -349 785 -46 -1 -100 -5 -120 -10z"/>
<path d="M2051 6055 c-238 -67 -391 -299 -351 -534 34 -204 196 -362 401 -394
240 -37 480 131 530 371 15 76 6 193 -21 265 -47 124 -167 240 -290 281 -76
25 -201 30 -269 11z"/>
<path d="M23323 6056 c-167 -41 -304 -175 -348 -341 -70 -269 107 -539 382
-587 253 -43 500 136 543 393 55 326 -254 613 -577 535z"/>
<path d="M7851 6019 c-61 -12 -163 -61 -216 -105 -25 -20 -63 -63 -85 -96
-182 -273 -41 -640 277 -723 317 -83 628 194 583 518 -5 34 -16 82 -25 107
-74 209 -312 343 -534 299z"/>
<path d="M17565 6019 c-116 -24 -241 -109 -304 -207 -123 -192 -92 -445 72
-599 193 -180 474 -177 658 6 222 222 172 590 -101 747 -89 51 -225 73 -325
53z"/>
<path d="M6165 5929 c-219 -45 -375 -238 -375 -463 0 -143 48 -254 149 -349
233 -218 609 -143 748 148 31 66 37 89 41 170 6 116 -18 203 -81 297 -101 151
-303 233 -482 197z"/>
<path d="M19270 5933 c-182 -30 -328 -159 -382 -336 -16 -54 -20 -87 -16 -162
4 -85 7 -100 46 -178 166 -334 618 -359 822 -45 53 82 73 164 68 280 -3 83 -8
103 -41 171 -90 190 -298 303 -497 270z"/>
<path d="M9368 5724 c-174 -42 -309 -172 -353 -339 -42 -164 4 -336 124 -456
143 -143 354 -179 539 -92 30 14 83 52 118 85 241 226 179 625 -120 767 -103
49 -203 61 -308 35z"/>
<path d="M16035 5728 c-114 -22 -240 -107 -304 -206 -175 -273 -33 -633 284
-718 152 -41 329 8 446 125 89 90 139 207 139 331 0 227 -148 412 -372 465
-70 16 -119 17 -193 3z"/>
<path d="M6693 4646 c-110 -27 -229 -112 -288 -206 -34 -55 -64 -143 -71 -212
-30 -296 245 -556 539 -510 188 29 343 170 392 357 87 337 -230 654 -572 571z"/>
<path d="M18683 4646 c-250 -61 -412 -325 -348 -569 23 -89 54 -145 118 -214
106 -113 261 -168 408 -146 258 40 443 288 401 540 -45 274 -312 453 -579 389z"/>
<path d="M2728 4634 c-368 -89 -486 -556 -204 -811 301 -272 786 -55 786 352
0 307 -285 532 -582 459z"/>
<path d="M22639 4632 c-351 -92 -468 -539 -208 -794 143 -139 352 -174 534
-89 354 166 355 686 2 851 -110 52 -213 62 -328 32z"/>
<path d="M3965 4576 c-179 -57 -306 -202 -336 -384 -34 -203 76 -408 266 -499
70 -33 88 -37 179 -41 85 -3 111 -1 165 17 331 113 438 511 207 768 -94 105
-208 153 -354 152 -48 0 -105 -6 -127 -13z"/>
<path d="M21358 4571 c-76 -25 -148 -72 -204 -134 -213 -237 -143 -598 144
-740 l86 -42 120 0 c119 0 122 1 200 38 333 159 368 618 63 820 -115 76 -279
99 -409 58z"/>
<path d="M1428 4529 c-68 -16 -161 -70 -219 -128 -213 -214 -174 -568 82 -732
189 -121 459 -83 607 86 231 263 105 681 -232 771 -57 15 -180 17 -238 3z"/>
<path d="M8038 4521 c-125 -40 -225 -127 -283 -245 -116 -237 -17 -520 222
-634 71 -33 87 -37 180 -40 84 -4 112 -1 166 17 152 51 273 177 311 326 18 67
20 169 5 234 -35 155 -166 294 -320 342 -79 25 -203 24 -281 0z"/>
<path d="M17278 4521 c-152 -49 -282 -189 -317 -342 -26 -109 -5 -249 49 -344
35 -61 130 -155 185 -182 88 -44 142 -55 248 -51 93 3 109 7 180 40 336 160
364 629 49 829 -107 68 -272 89 -394 50z"/>
<path d="M23920 4521 c-89 -29 -141 -60 -202 -122 -180 -184 -179 -479 2 -660
94 -95 205 -140 339 -140 306 1 533 291 456 584 -44 169 -184 309 -346 346
-68 16 -187 12 -249 -8z"/>
<path d="M5230 4501 c-277 -88 -410 -396 -285 -658 158 -333 627 -357 827 -43
60 94 84 243 57 359 -37 163 -187 313 -350 350 -68 16 -187 12 -249 -8z"/>
<path d="M20117 4509 c-66 -15 -145 -59 -201 -110 -105 -96 -156 -210 -156
-349 0 -352 358 -577 678 -425 288 136 356 530 129 754 -68 67 -114 96 -196
121 -67 21 -184 25 -254 9z"/>
<path d="M5920 3036 c-78 -23 -152 -66 -211 -125 -295 -295 -86 -801 331 -802
239 -1 429 159 470 394 38 215 -90 437 -297 518 -71 27 -224 35 -293 15z"/>
<path d="M19420 3031 c-110 -35 -196 -98 -254 -185 -96 -145 -109 -317 -35
-472 114 -241 405 -336 651 -213 59 30 152 123 186 187 104 195 74 408 -78
563 -60 60 -134 104 -215 125 -70 19 -189 17 -255 -5z"/>
<path d="M7173 3005 c-83 -23 -152 -63 -214 -124 -268 -268 -130 -719 243
-797 316 -66 608 212 558 532 -21 138 -121 283 -239 348 -100 54 -239 70 -348
41z"/>
<path d="M18181 3004 c-172 -46 -313 -207 -341 -388 -50 -320 242 -598 558
-532 373 78 510 529 243 797 -120 119 -298 167 -460 123z"/>
<path d="M2271 2999 c-136 -23 -278 -132 -339 -260 -66 -138 -65 -279 4 -417
143 -290 524 -352 754 -122 116 116 163 273 129 432 -40 185 -202 339 -389
368 -74 11 -84 11 -159 -1z"/>
<path d="M23160 2999 c-178 -30 -341 -188 -379 -367 -34 -160 13 -316 129
-432 229 -229 609 -168 754 120 47 94 63 188 47 282 -44 265 -289 442 -551
397z"/>
<path d="M3505 2978 c-208 -24 -371 -183 -407 -395 -30 -177 54 -367 205 -464
292 -189 671 -23 729 318 36 217 -97 445 -302 518 -62 22 -154 32 -225 23z"/>
<path d="M21975 2978 c-234 -27 -417 -234 -414 -468 3 -357 385 -582 700 -414
170 91 273 298 241 487 -43 257 -268 426 -527 395z"/>
<path d="M4673 2946 c-141 -34 -257 -130 -321 -263 -33 -71 -37 -87 -40 -178
-3 -83 0 -111 18 -165 28 -84 70 -149 133 -206 257 -231 657 -123 767 206 18
54 21 82 18 165 -3 91 -7 107 -40 178 -98 205 -321 315 -535 263z"/>
<path d="M20713 2946 c-141 -34 -257 -130 -320 -263 -33 -68 -38 -88 -41 -171
-5 -116 15 -198 67 -280 219 -339 723 -275 851 108 18 54 21 82 18 165 -3 91
-7 107 -40 178 -97 204 -322 314 -535 263z"/>
<path d="M1068 2940 c-219 -38 -375 -203 -402 -424 -26 -215 134 -445 349
-501 352 -91 671 228 580 580 -60 227 -300 384 -527 345z"/>
<path d="M24385 2939 c-33 -5 -91 -24 -130 -43 -292 -144 -356 -527 -126 -757
149 -149 379 -182 564 -81 117 63 216 207 237 345 27 174 -53 357 -200 460
-92 64 -226 94 -345 76z"/>
<path d="M865 1299 c-116 -24 -241 -109 -304 -207 -175 -274 -33 -634 284
-717 292 -76 585 153 585 455 0 209 -127 386 -326 454 -62 21 -174 28 -239 15z"/>
<path d="M2036 1294 c-357 -86 -486 -528 -231 -789 229 -235 616 -174 761 119
93 189 56 406 -94 548 -122 116 -278 160 -436 122z"/>
<path d="M3235 1298 c-138 -26 -268 -130 -332 -264 -34 -72 -38 -88 -41 -179
-3 -83 0 -111 18 -165 28 -84 70 -149 133 -206 220 -198 555 -152 717 98 53
82 73 164 68 280 -3 83 -8 103 -41 171 -95 201 -304 307 -522 265z"/>
<path d="M4413 1295 c-86 -19 -157 -59 -229 -130 -190 -188 -186 -489 9 -672
193 -180 473 -177 657 7 230 230 168 612 -122 754 -113 56 -197 67 -315 41z"/>
<path d="M5596 1294 c-170 -41 -306 -177 -351 -351 -63 -241 88 -497 334 -565
284 -79 567 118 597 414 23 228 -138 449 -367 503 -78 18 -135 18 -213 -1z"/>
<path d="M6793 1295 c-169 -37 -315 -176 -358 -340 -42 -164 4 -334 125 -455
186 -186 479 -187 664 -2 188 188 189 481 2 668 -69 69 -158 116 -250 133 -74
14 -105 13 -183 -4z"/>
<path d="M18615 1298 c-242 -46 -416 -295 -375 -537 64 -383 527 -534 800
-261 266 266 132 717 -237 795 -76 16 -116 17 -188 3z"/>
<path d="M19786 1294 c-224 -54 -385 -276 -362 -502 22 -213 175 -382 384
-423 275 -53 535 147 559 430 19 227 -141 442 -369 496 -77 18 -135 18 -212
-1z"/>
<path d="M20990 1299 c-71 -14 -182 -74 -237 -128 -261 -257 -147 -695 205
-792 163 -46 321 -6 448 113 196 184 201 483 10 674 -115 115 -270 163 -426
133z"/>
<path d="M22175 1298 c-138 -26 -268 -130 -332 -264 -33 -69 -38 -89 -41 -172
-5 -116 15 -198 67 -280 220 -339 723 -275 851 108 18 54 21 82 18 165 -3 91
-7 107 -40 178 -96 201 -305 307 -523 265z"/>
<path d="M23348 1294 c-237 -57 -397 -291 -360 -526 38 -249 262 -426 510
-405 274 23 476 288 423 556 -53 268 -314 438 -573 375z"/>
<path d="M24570 1303 c-14 -2 -52 -13 -85 -25 -328 -115 -423 -534 -176 -778
122 -120 286 -166 446 -125 89 23 142 53 212 119 165 153 195 406 72 598 -97
150 -294 239 -469 211z"/>
</g>
</svg>
