<svg xmlns="http://www.w3.org/2000/svg" xmlns:xlink="http://www.w3.org/1999/xlink" version="1.1" id="Layer_1" x="0px" y="0px" viewBox="0 0 130 70" style="enable-background:new 0 0 130 70;" xml:space="preserve" width="130"  height="70" >
<style type="text/css">
	.st0{fill:#596A6F;}
	.st1{fill:#097F66;}
</style>
<g>
	<g>
		<path class="st0" d="M25.98,46.79c3.02,0,6.22,1.01,8.42,3.17l-2.54,4.14c-1.45-1.25-3.61-2.29-5.62-2.29    c-4.49,0-6.35,3.17-6.35,6.41c0,3.33,2.01,6.75,6.35,6.75c2.23,0,4.43-1.23,5.97-2.77l2.83,4.02C33.06,68.27,30.11,70,25.99,70    c-7.24,0-11.79-4.99-11.79-11.65C14.2,51.81,19.04,46.79,25.98,46.79z"/>
		<path class="st0" d="M37.83,47.16H51.9v4.71h-8.58v4.08h6.85v4.71h-6.85v4.24h9.02v4.71H37.83V47.16z"/>
		<path class="st0" d="M55.86,47.16h8.26c4.49,0,7.64,2.01,7.64,5.87c0,1.88-0.91,3.8-2.61,4.78v0.06c2.58,0.78,3.52,3.08,3.52,5.06    c0,4.9-4.08,6.69-8.54,6.69h-8.26V47.16z M64.18,55.87c1.38,0,1.98-1.01,1.98-2.07c0-1.04-0.59-1.91-2.07-1.91h-2.74v3.99    L64.18,55.87L64.18,55.87z M64.66,64.91c1.6,0,2.38-1.1,2.38-2.35c0-1.26-0.75-2.3-2.35-2.3h-3.33v4.65    C61.36,64.91,64.66,64.91,64.66,64.91z"/>
		<path class="st0" d="M81.15,47.16h5.78l7.63,22.46h-5.65l-1.38-4.71h-7l-1.35,4.71h-5.65L81.15,47.16z M86.23,60.51l-1.26-4.37    c-0.41-1.41-0.91-3.86-0.91-3.86H84c0,0-0.5,2.45-0.91,3.86l-1.29,4.37C81.79,60.51,86.23,60.51,86.23,60.51z"/>
		<path class="st0" d="M96.83,47.16h5.56l6.22,10.49c0.88,1.48,1.88,3.84,1.88,3.84h0.06c0,0-0.25-2.42-0.25-3.84V47.16h5.49v22.46    h-5.53l-6.25-10.46c-0.88-1.48-1.88-3.83-1.88-3.83h-0.06c0,0,0.25,2.41,0.25,3.83v10.46h-5.49    C96.83,69.62,96.83,47.16,96.83,47.16z"/>
	</g>
	<g>
		<path class="st1" d="M14.2,0h12.41l5.57,21.56h0.09L37.84,0h12.41v32.34h-7.92V7.79h-0.09l-6.79,24.55h-6.43L22.22,7.79h-0.09    v24.55H14.2V0z"/>
		<path class="st1" d="M64.87,0h8.56l12.09,32.34h-8.78l-1.99-5.8H63.47l-2.04,5.8h-8.64L64.87,0z M65.42,20.29h7.34L69.18,8.96    h-0.09L65.42,20.29z"/>
		<path class="st1" d="M87.87,0h8.65l11.23,19.93h0.09V0h7.92v32.34h-8.65L95.89,12.18H95.8v20.16h-7.92V0z"/>
	</g>
	<g>
		<path class="st1" d="M115.52,39.44l-4.95-3.35c-0.39-0.27-0.91,0.02-0.91,0.48v0.4c0,0.32-0.27,0.59-0.59,0.59H60.55    c-0.32,0-0.59,0.27-0.59,0.59v3.57c0,0.32,0.27,0.59,0.59,0.59h48.52c0.32,0,0.59,0.27,0.59,0.59v0.4c0,0.47,0.52,0.75,0.91,0.48    l4.95-3.35C115.86,40.18,115.86,39.67,115.52,39.44z"/>
		<path class="st1" d="M57.13,37.55H41.77c-0.38,0-0.68,0.3-0.68,0.68v3.38c0,0.38,0.3,0.68,0.68,0.68h15.37    c0.38,0,0.68-0.3,0.68-0.68v-3.38C57.81,37.86,57.51,37.55,57.13,37.55z"/>
		<path class="st1" d="M37.85,37.55h-8.2c-0.38,0-0.68,0.3-0.68,0.68v3.38c0,0.38,0.3,0.68,0.68,0.68h8.2c0.38,0,0.68-0.3,0.68-0.68    v-3.38C38.53,37.86,38.23,37.55,37.85,37.55z"/>
		<path class="st1" d="M26.32,37.55h-5.65c-0.38,0-0.68,0.3-0.68,0.68v3.38c0,0.38,0.3,0.68,0.68,0.68h5.64    c0.38,0,0.68-0.3,0.68-0.68v-3.38C27,37.86,26.7,37.55,26.32,37.55z"/>
		<path class="st1" d="M17.09,37.55h-2.21c-0.38,0-0.68,0.3-0.68,0.68v3.38c0,0.38,0.3,0.68,0.68,0.68h2.21    c0.38,0,0.68-0.3,0.68-0.68v-3.38C17.77,37.86,17.47,37.55,17.09,37.55z"/>
	</g>
</g>
</svg>