<?xml version="1.0" encoding="UTF-8" standalone="no"?>
<svg
   xmlns:dc="http://purl.org/dc/elements/1.1/"
   xmlns:cc="http://creativecommons.org/ns#"
   xmlns:rdf="http://www.w3.org/1999/02/22-rdf-syntax-ns#"
   xmlns:svg="http://www.w3.org/2000/svg"
   xmlns="http://www.w3.org/2000/svg"
   xmlns:sodipodi="http://sodipodi.sourceforge.net/DTD/sodipodi-0.dtd"
   xmlns:inkscape="http://www.inkscape.org/namespaces/inkscape"
   version="1.1"
   id="svg2"
   width="2006.8127"
   height="1368.4988"
   viewBox="0 0 2006.8127 1368.4989"
   sodipodi:docname="AUR_Logo.svg"
   inkscape:version="1.0.2 (e86c870879, 2021-01-15, custom)"
   inkscape:export-filename="F:\DATEN\FOTOS\Bandlogos\vektorisiert\big_logo.png"
   inkscape:export-xdpi="96"
   inkscape:export-ydpi="96">
  <metadata
     id="metadata8">
    <rdf:RDF>
      <cc:Work
         rdf:about="">
        <dc:format>image/svg+xml</dc:format>
        <dc:type
           rdf:resource="http://purl.org/dc/dcmitype/StillImage" />
        <dc:title></dc:title>
      </cc:Work>
    </rdf:RDF>
  </metadata>
  <defs
     id="defs6" />
  <sodipodi:namedview
     pagecolor="#ffffff"
     bordercolor="#666666"
     borderopacity="1"
     objecttolerance="10"
     gridtolerance="10"
     guidetolerance="10"
     inkscape:pageopacity="0"
     inkscape:pageshadow="2"
     inkscape:window-width="1680"
     inkscape:window-height="988"
     id="namedview4"
     showgrid="false"
     fit-margin-left="10"
     fit-margin-top="10"
     fit-margin-right="10"
     fit-margin-bottom="10"
     inkscape:zoom="0.35355339"
     inkscape:cx="913.50404"
     inkscape:cy="849.03595"
     inkscape:window-x="-8"
     inkscape:window-y="-8"
     inkscape:window-maximized="1"
     inkscape:current-layer="g10"
     inkscape:document-rotation="0" />
  <g
     inkscape:groupmode="layer"
     inkscape:label="Image"
     id="g10"
     transform="translate(-283.02092,-32.887083)">
    <path
       id="path888"
       style="fill:#000000;stroke-width:1.5562"
       d="m 1616.2321,962.78468 c -4.3336,-0.71704 -9.8151,-3.10001 -10.6453,-7.72763 -0.7988,-6.20595 0,-201.38892 0,-201.38892 0,-141.28496 0.5019,-202.32659 1.6815,-204.53076 3.7957,-7.09235 8.2774,-7.5478 74.1333,-7.53364 60.3927,0.0124 89.6962,1.34672 105.4825,4.80094 73.8894,17.80545 104.3666,72.80921 103.1184,128.63048 -2.3276,54.21058 -28.3951,86.97516 -64.0932,111.51553 -1.4432,0.98813 -2.1515,1.57634 -1.8831,3.10565 -0.1778,2.97605 96.6881,158.53593 97.1684,162.29991 0.6554,5.13648 -3.159,12.7552 -50.4862,12.84565 -28.7223,0.0549 -40.2999,-0.45833 -43.5735,-1.93155 -8.1218,-3.65496 -14.8638,-9.63829 -16.1298,-11.10163 -28.6209,-33.08144 -82.2012,-142.55771 -84.0927,-143.07443 -1.865,-0.50948 -16.4517,-2.18889 -17.8383,-0.21568 -0.8941,2.45601 -0.4389,140.379 -4.2953,148.28032 -3.0849,9.6649 -11.3871,8.12702 -49.1946,7.99132 -23.4544,-0.0842 -36.5955,-0.74056 -39.3521,-1.96556 z m 150.5094,-244.27977 c 17.1115,-12.80835 15.8434,-22.68234 15.9699,-44.0625 0.1392,-23.534 0.1767,-30.146 -13.9054,-42.19065 -16.6198,-14.21515 -59.7319,-8.96087 -59.7319,-8.96087 l -0.071,103.08556 c 0,0 40.8278,4.78637 57.7383,-7.87154 z"
       sodipodi:nodetypes="ccsscccccsssssccscsssccss" />
    <path
       id="path884"
       style="fill:#000000;stroke-width:1.5562"
       d="m 783.75109,962.80499 c -7.37926,-3.31159 -9.17471,-5.77569 -9.17471,-12.59155 -0.63285,-9.39379 134.69555,-383.87926 136.94555,-391.1508 1.21072,-3.91281 5.3919,-10.70457 11.41985,-13.99704 4.25635,-2.32482 9.74976,-2.68808 40.71283,-2.69225 49.24529,-0.006 47.15849,-1.21683 59.02879,34.23156 0,0 126.5244,353.31095 130.0152,363.59165 1.928,5.67797 3.9365,14.08181 -0.3548,17.98559 -5.4205,4.93092 -10.4447,5.62138 -45.5189,6.25539 -26.7981,0.4844 -34.1114,0.14317 -40.6321,-1.89562 -8.955,-2.79997 -13.8445,-6.51067 -16.8203,-15.56158 -8.2178,-20.80378 -16.0114,-42.74023 -22.2369,-61.46987 -3.8268,-11.55478 -7.6813,-21.88405 -8.5655,-22.95394 -1.9634,-2.37558 -107.13504,-2.84112 -111.52136,-0.49364 -1.49179,0.79839 -4.24302,6.22564 -6.11382,12.06054 -1.87081,5.83493 -7.3265,22.86401 -12.12376,37.84243 -12.14843,37.93088 -12.83773,39.64503 -17.88778,44.48327 -7.82473,7.49657 -13.18436,8.38994 -49.66102,8.27767 -21.96332,-0.0675 -34.85072,-0.72785 -37.51127,-1.92181 z m 179.71568,-302.16532 -30.57269,122.78448 59.90347,0.93337 z"
       sodipodi:nodetypes="scssccssssccssssssscccc" />
    <path
       style="fill:#000000;stroke-width:1.5562"
       d="m 1268.4525,954.24004 c -50.0724,-28.41908 -68.2944,-69.54238 -72.4974,-122.41845 -2.3319,-30.64719 -0.9431,-269.30236 -0.3373,-275.32843 1.2585,-15.63181 13.9806,-13.23653 49.1785,-14.12464 39.2395,-0.1328 50.5483,-1.10022 51.885,10.31609 3.8966,18.51765 -5.2459,294.70135 11.8387,314.83608 14.4527,17.03292 36.731,23.66168 57.3891,23.40667 21.8595,-0.26984 52.8449,-7.93133 60.097,-26.2595 8.9913,-22.56793 1.0701,-293.46663 3.3057,-311.92005 1.5933,-13.15152 25.6032,-10.35743 50.3595,-10.56039 28.9126,0.85009 45.9513,-1.10547 47.451,11.85156 1.2389,16.69547 7.7667,219.521 0.9462,294.12271 -5.0218,32.02219 -11.7763,49.5471 -39.6519,80.33462 -42.7054,37.06494 -64.4395,40.51886 -120.7626,40.40528 -53.1096,0.16486 -74.0692,-1.12881 -99.2015,-14.66155 z"
       id="path882"
       sodipodi:nodetypes="cccccsacscccccc" />
    <path
       style="fill:#000000;stroke-width:1.5562"
       d="m 1216.679,1391.1104 -197.3214,-21.5784 -98.49999,-44.358 -109.08426,21.8793 -39.92032,-100.0582 47.7082,-9.4329 -121.23862,-82.9876 67.94175,-42.8844 -43.77794,-25.8177 -69.85532,85.9786 -157.31536,-132.7548 35.998,-96.29261 -112.51015,-68.28164 -30.49678,-110.36938 -95.28589,-116.39442 134.19544,2.70283 33.2625,-47.22802 45.64976,21.89659 225.72927,-360.62283 c -0.0498,-0.0898 60.86107,7.10737 60.86107,7.10737 l 86.50391,-97.84547 293.38693,48.92956 -40.9393,34.68502 -236.11828,-40.39873 -86.55541,97.67378 -56.31967,-6.06887 -231.32089,370.55338 -49.21514,-26.33244 -27.36008,38.05112 -76.04502,-2.52301 53.71756,60.6255 27.39049,97.37085 133.53137,82.75799 -38.29955,96.63403 103.41678,86.9886 65.5446,-76.1722 129.01189,75.7867 -77.17244,47.3555 126.97082,91.7898 -75.57077,18.8823 14.07602,35.8687 96.1879,-21.9883 109.04662,45.2352 181.6765,22.9478 127.3057,3.1189 61.7224,-47.5228 34.894,24.0304 -76.5062,59.3384 z"
       id="path869" />
    <path
       sodipodi:type="star"
       style="opacity:1;fill:#000800;fill-opacity:1;stroke-width:1.17027"
       id="path871"
       sodipodi:sides="5"
       sodipodi:cx="1330.6185"
       sodipodi:cy="220.42683"
       sodipodi:r1="102.06025"
       sodipodi:r2="35.721088"
       sodipodi:arg1="-0.31267619"
       sodipodi:arg2="0.31564234"
       inkscape:flatsided="false"
       inkscape:rounded="-3.469447e-18"
       inkscape:randomized="0"
       d="m 1427.7303,189.03247 -63.1554,42.48316 25.9106,71.56856 -59.9199,-46.93631 -60.059,46.75837 26.1228,-71.49139 -63.0291,-42.6703 76.0648,2.7522 21.1048,-73.13006 20.8878,73.19234 z"
       inkscape:transform-center-x="-0.046773611"
       inkscape:transform-center-y="-9.701392" />
    <path
       sodipodi:type="star"
       style="fill:#000000;fill-opacity:1;stroke-width:1.17027"
       id="path871-9"
       sodipodi:sides="5"
       sodipodi:cx="1614.3511"
       sodipodi:cy="144.94722"
       sodipodi:r1="102.06025"
       sodipodi:r2="35.721088"
       sodipodi:arg1="-0.31267619"
       sodipodi:arg2="0.31564234"
       inkscape:flatsided="false"
       inkscape:rounded="-3.469447e-18"
       inkscape:randomized="0"
       inkscape:transform-center-x="-0.046773611"
       inkscape:transform-center-y="-9.701392"
       d="m 1711.4628,113.55286 -63.1554,42.48316 25.9107,71.56855 -59.92,-46.9363 -60.0589,46.75837 26.1228,-71.49139 -63.0291,-42.6703 76.0647,2.75219 21.1048,-73.130057 20.8878,73.192337 z" />
    <path
       sodipodi:type="star"
       style="fill:#000000;fill-opacity:1;stroke-width:1.17027"
       id="path871-7"
       sodipodi:sides="5"
       sodipodi:cx="1899.5107"
       sodipodi:cy="221.22752"
       sodipodi:r1="102.06025"
       sodipodi:r2="35.721088"
       sodipodi:arg1="-0.31267619"
       sodipodi:arg2="0.31564234"
       inkscape:flatsided="false"
       inkscape:rounded="-3.469447e-18"
       inkscape:randomized="0"
       inkscape:transform-center-x="-0.046773611"
       inkscape:transform-center-y="-9.701392"
       d="m 1996.6225,189.83316 -63.1554,42.48316 25.9106,71.56856 -59.9199,-46.93631 -60.059,46.75837 26.1228,-71.49139 -63.029,-42.6703 76.0647,2.7522 21.1048,-73.13006 20.8878,73.19234 z" />
    <path
       sodipodi:type="star"
       style="fill:#000000;fill-opacity:1;stroke-width:1.17027"
       id="path871-7-3"
       sodipodi:sides="5"
       sodipodi:cx="2105.7002"
       sodipodi:cy="427.66937"
       sodipodi:r1="102.06025"
       sodipodi:r2="35.721088"
       sodipodi:arg1="-0.31267619"
       sodipodi:arg2="0.31564234"
       inkscape:flatsided="false"
       inkscape:rounded="-3.469447e-18"
       inkscape:randomized="0"
       inkscape:transform-center-x="-0.046773611"
       inkscape:transform-center-y="-9.701392"
       d="m 2202.8119,396.27501 -63.1553,42.48316 25.9106,71.56856 -59.92,-46.93631 -60.0589,46.75837 26.1228,-71.49139 -63.0291,-42.6703 76.0647,2.7522 21.1049,-73.13006 20.8878,73.19234 z" />
    <path
       sodipodi:type="star"
       style="fill:#000000;fill-opacity:1;stroke-width:1.17027"
       id="path871-7-1"
       sodipodi:sides="5"
       sodipodi:cx="2182.7219"
       sodipodi:cy="711.54523"
       sodipodi:r1="102.06025"
       sodipodi:r2="35.721088"
       sodipodi:arg1="-0.31267619"
       sodipodi:arg2="0.31564234"
       inkscape:flatsided="false"
       inkscape:rounded="-3.469447e-18"
       inkscape:randomized="0"
       inkscape:transform-center-x="-0.046773611"
       inkscape:transform-center-y="-9.701392"
       d="m 2279.8337,680.15086 -63.1554,42.48316 25.9106,71.56856 -59.92,-46.9363 -60.0589,46.75836 26.1228,-71.49139 -63.0291,-42.67029 76.0648,2.75219 21.1048,-73.13006 20.8878,73.19234 z" />
    <path
       sodipodi:type="star"
       style="fill:#000000;fill-opacity:1;stroke-width:1.17027"
       id="path871-7-8"
       sodipodi:sides="5"
       sodipodi:cx="2106.3274"
       sodipodi:cy="998.07874"
       sodipodi:r1="102.06025"
       sodipodi:r2="35.721088"
       sodipodi:arg1="-0.31267619"
       sodipodi:arg2="0.31564234"
       inkscape:flatsided="false"
       inkscape:rounded="-3.469447e-18"
       inkscape:randomized="0"
       inkscape:transform-center-x="-0.046773611"
       inkscape:transform-center-y="-9.701392"
       d="m 2203.4391,966.68437 -63.1553,42.48313 25.9106,71.5686 -59.92,-46.9363 -60.0589,46.7584 26.1228,-71.4914 -63.0291,-42.67034 76.0647,2.7522 21.1049,-73.13006 20.8878,73.19234 z" />
    <path
       sodipodi:type="star"
       style="fill:#000000;fill-opacity:1;stroke-width:1.17027"
       id="path871-7-5"
       sodipodi:sides="5"
       sodipodi:cx="1898.0964"
       sodipodi:cy="1206.2273"
       sodipodi:r1="102.06025"
       sodipodi:r2="35.721088"
       sodipodi:arg1="-0.31267619"
       sodipodi:arg2="0.31564234"
       inkscape:flatsided="false"
       inkscape:rounded="-3.469447e-18"
       inkscape:randomized="0"
       inkscape:transform-center-x="-0.046773611"
       inkscape:transform-center-y="-9.701392"
       d="m 1995.2082,1174.8329 -63.1554,42.4832 25.9106,71.5685 -59.9199,-46.9363 -60.059,46.7584 26.1228,-71.4914 -63.029,-42.6703 76.0647,2.7522 21.1048,-73.13 20.8878,73.1923 z" />
    <path
       sodipodi:type="star"
       style="fill:#000000;fill-opacity:1;stroke-width:1.17027"
       id="path871-7-37"
       sodipodi:sides="5"
       sodipodi:cx="1614.615"
       sodipodi:cy="1282.5278"
       sodipodi:r1="102.06025"
       sodipodi:r2="35.721088"
       sodipodi:arg1="-0.31267619"
       sodipodi:arg2="0.31564234"
       inkscape:flatsided="false"
       inkscape:rounded="-3.469447e-18"
       inkscape:randomized="0"
       inkscape:transform-center-x="-0.046773611"
       inkscape:transform-center-y="-9.701392"
       d="m 1711.7267,1251.1335 -63.1553,42.4831 25.9106,71.5686 -59.92,-46.9363 -60.0589,46.7583 26.1228,-71.4913 -63.0291,-42.6703 76.0647,2.7522 21.1049,-73.1301 20.8878,73.1923 z" />
  </g>
</svg>
