<svg xmlns:xlink="http://www.w3.org/1999/xlink" xmlns="http://www.w3.org/2000/svg" width="75" height="46" viewBox="0 0 75 46" fill="none">
<rect x="0.25" y="0.25" width="74.5" height="45.5" fill="white" stroke="#2680FA" strokeWidth="0.5"/>
<mask id="mask0_511_2232" style="mask-type:alpha" maskUnits="userSpaceOnUse" x="0" y="0" width="75" height="46">
<rect x="0.25" y="0.25" width="74.5" height="45.5" fill="white" stroke="#2680FA" strokeWidth="0.5"/>
</mask>
<g mask="url(#mask0_511_2232)">
<path d="M0.25 45.5534V0.25H74.1142L0.25 45.5534Z" fill="#2680FA" stroke="#2680FA" strokeWidth="0.5"/>
</g>
<path d="M8.973 9.577C8.973 10.215 8.753 10.7467 8.313 11.172C7.88033 11.59 7.21667 11.799 6.322 11.799H4.848V15H3.847V7.333H6.322C7.18733 7.333 7.84367 7.542 8.291 7.96C8.74567 8.378 8.973 8.917 8.973 9.577ZM6.322 10.974C6.87933 10.974 7.29 10.853 7.554 10.611C7.818 10.369 7.95 10.0243 7.95 9.577C7.95 8.631 7.40733 8.158 6.322 8.158H4.848V10.974H6.322ZM9.84312 11.964C9.84312 11.348 9.96778 10.809 10.2171 10.347C10.4665 9.87767 10.8075 9.51467 11.2401 9.258C11.6801 9.00133 12.1678 8.873 12.7031 8.873C13.2311 8.873 13.6895 8.98667 14.0781 9.214C14.4668 9.44133 14.7565 9.72733 14.9471 10.072V8.972H15.9591V15H14.9471V13.878C14.7491 14.23 14.4521 14.5233 14.0561 14.758C13.6675 14.9853 13.2128 15.099 12.6921 15.099C12.1568 15.099 11.6728 14.967 11.2401 14.703C10.8075 14.439 10.4665 14.0687 10.2171 13.592C9.96778 13.1153 9.84312 12.5727 9.84312 11.964ZM14.9471 11.975C14.9471 11.5203 14.8555 11.1243 14.6721 10.787C14.4888 10.4497 14.2395 10.193 13.9241 10.017C13.6161 9.83367 13.2751 9.742 12.9011 9.742C12.5271 9.742 12.1861 9.83 11.8781 10.006C11.5701 10.182 11.3245 10.4387 11.1411 10.776C10.9578 11.1133 10.8661 11.5093 10.8661 11.964C10.8661 12.426 10.9578 12.8293 11.1411 13.174C11.3245 13.5113 11.5701 13.7717 11.8781 13.955C12.1861 14.131 12.5271 14.219 12.9011 14.219C13.2751 14.219 13.6161 14.131 13.9241 13.955C14.2395 13.7717 14.4888 13.5113 14.6721 13.174C14.8555 12.8293 14.9471 12.4297 14.9471 11.975ZM18.6517 9.951C18.8277 9.60633 19.077 9.33867 19.3997 9.148C19.7297 8.95733 20.1294 8.862 20.5987 8.862V9.896H20.3347C19.2127 9.896 18.6517 10.5047 18.6517 11.722V15H17.6507V8.972H18.6517V9.951ZM22.9752 9.797V13.35C22.9752 13.6433 23.0376 13.8523 23.1622 13.977C23.2869 14.0943 23.5032 14.153 23.8112 14.153H24.5482V15H23.6462C23.0889 15 22.6709 14.8717 22.3922 14.615C22.1136 14.3583 21.9742 13.9367 21.9742 13.35V9.797H21.1932V8.972H21.9742V7.454H22.9752V8.972H24.5482V9.797H22.9752ZM26.2781 7.993C26.0874 7.993 25.9261 7.927 25.7941 7.795C25.6621 7.663 25.5961 7.50167 25.5961 7.311C25.5961 7.12033 25.6621 6.959 25.7941 6.827C25.9261 6.695 26.0874 6.629 26.2781 6.629C26.4614 6.629 26.6154 6.695 26.7401 6.827C26.8721 6.959 26.9381 7.12033 26.9381 7.311C26.9381 7.50167 26.8721 7.663 26.7401 7.795C26.6154 7.927 26.4614 7.993 26.2781 7.993ZM26.7621 8.972V15H25.7611V8.972H26.7621ZM28.0941 11.964C28.0941 11.348 28.2188 10.809 28.4681 10.347C28.7174 9.87767 29.0584 9.51467 29.4911 9.258C29.9311 9.00133 30.4224 8.873 30.9651 8.873C31.4344 8.873 31.8708 8.983 32.2741 9.203C32.6774 9.41567 32.9854 9.698 33.1981 10.05V6.86H34.2101V15H33.1981V13.867C33.0001 14.2263 32.7068 14.5233 32.3181 14.758C31.9294 14.9853 31.4748 15.099 30.9541 15.099C30.4188 15.099 29.9311 14.967 29.4911 14.703C29.0584 14.439 28.7174 14.0687 28.4681 13.592C28.2188 13.1153 28.0941 12.5727 28.0941 11.964ZM33.1981 11.975C33.1981 11.5203 33.1064 11.1243 32.9231 10.787C32.7398 10.4497 32.4904 10.193 32.1751 10.017C31.8671 9.83367 31.5261 9.742 31.1521 9.742C30.7781 9.742 30.4371 9.83 30.1291 10.006C29.8211 10.182 29.5754 10.4387 29.3921 10.776C29.2088 11.1133 29.1171 11.5093 29.1171 11.964C29.1171 12.426 29.2088 12.8293 29.3921 13.174C29.5754 13.5113 29.8211 13.7717 30.1291 13.955C30.4371 14.131 30.7781 14.219 31.1521 14.219C31.5261 14.219 31.8671 14.131 32.1751 13.955C32.4904 13.7717 32.7398 13.5113 32.9231 13.174C33.1064 12.8293 33.1981 12.4297 33.1981 11.975ZM41.2477 8.972V15H40.2467V14.109C40.056 14.417 39.7884 14.659 39.4437 14.835C39.1064 15.0037 38.7324 15.088 38.3217 15.088C37.8524 15.088 37.4307 14.9927 37.0567 14.802C36.6827 14.604 36.3857 14.3107 36.1657 13.922C35.953 13.5333 35.8467 13.0603 35.8467 12.503V8.972H36.8367V12.371C36.8367 12.965 36.987 13.4233 37.2877 13.746C37.5884 14.0613 37.999 14.219 38.5197 14.219C39.055 14.219 39.4767 14.054 39.7847 13.724C40.0927 13.394 40.2467 12.9137 40.2467 12.283V8.972H41.2477ZM43.9388 6.86V15H42.9378V6.86H43.9388Z" fill="white"/>
<path d="M40.5 40H39.408L35.016 33.34V40H33.924V31.624H35.016L39.408 38.272V31.624H40.5V40ZM45.2295 40.108C44.6135 40.108 44.0535 39.968 43.5495 39.688C43.0535 39.408 42.6615 39.012 42.3735 38.5C42.0935 37.98 41.9535 37.38 41.9535 36.7C41.9535 36.028 42.0975 35.436 42.3855 34.924C42.6815 34.404 43.0815 34.008 43.5855 33.736C44.0895 33.456 44.6535 33.316 45.2775 33.316C45.9015 33.316 46.4655 33.456 46.9695 33.736C47.4735 34.008 47.8695 34.4 48.1575 34.912C48.4535 35.424 48.6015 36.02 48.6015 36.7C48.6015 37.38 48.4495 37.98 48.1455 38.5C47.8495 39.012 47.4455 39.408 46.9335 39.688C46.4215 39.968 45.8535 40.108 45.2295 40.108ZM45.2295 39.148C45.6215 39.148 45.9895 39.056 46.3335 38.872C46.6775 38.688 46.9535 38.412 47.1615 38.044C47.3775 37.676 47.4855 37.228 47.4855 36.7C47.4855 36.172 47.3815 35.724 47.1735 35.356C46.9655 34.988 46.6935 34.716 46.3575 34.54C46.0215 34.356 45.6575 34.264 45.2655 34.264C44.8655 34.264 44.4975 34.356 44.1615 34.54C43.8335 34.716 43.5695 34.988 43.3695 35.356C43.1695 35.724 43.0695 36.172 43.0695 36.7C43.0695 37.236 43.1655 37.688 43.3575 38.056C43.5575 38.424 43.8215 38.7 44.1495 38.884C44.4775 39.06 44.8375 39.148 45.2295 39.148ZM52.3653 40.108C51.8613 40.108 51.4093 40.024 51.0093 39.856C50.6093 39.68 50.2933 39.44 50.0613 39.136C49.8293 38.824 49.7013 38.468 49.6773 38.068H50.8053C50.8373 38.396 50.9893 38.664 51.2613 38.872C51.5413 39.08 51.9053 39.184 52.3533 39.184C52.7693 39.184 53.0973 39.092 53.3373 38.908C53.5773 38.724 53.6973 38.492 53.6973 38.212C53.6973 37.924 53.5693 37.712 53.3133 37.576C53.0573 37.432 52.6613 37.292 52.1253 37.156C51.6373 37.028 51.2373 36.9 50.9253 36.772C50.6213 36.636 50.3573 36.44 50.1333 36.184C49.9173 35.92 49.8093 35.576 49.8093 35.152C49.8093 34.816 49.9093 34.508 50.1093 34.228C50.3093 33.948 50.5933 33.728 50.9613 33.568C51.3293 33.4 51.7493 33.316 52.2213 33.316C52.9493 33.316 53.5373 33.5 53.9853 33.868C54.4333 34.236 54.6733 34.74 54.7053 35.38H53.6133C53.5893 35.036 53.4493 34.76 53.1933 34.552C52.9453 34.344 52.6093 34.24 52.1853 34.24C51.7933 34.24 51.4813 34.324 51.2493 34.492C51.0173 34.66 50.9013 34.88 50.9013 35.152C50.9013 35.368 50.9693 35.548 51.1053 35.692C51.2493 35.828 51.4253 35.94 51.6333 36.028C51.8493 36.108 52.1453 36.2 52.5213 36.304C52.9933 36.432 53.3773 36.56 53.6733 36.688C53.9693 36.808 54.2213 36.992 54.4293 37.24C54.6453 37.488 54.7573 37.812 54.7653 38.212C54.7653 38.572 54.6653 38.896 54.4653 39.184C54.2653 39.472 53.9813 39.7 53.6133 39.868C53.2533 40.028 52.8373 40.108 52.3653 40.108ZM57.6388 34.324V38.2C57.6388 38.52 57.7068 38.748 57.8428 38.884C57.9788 39.012 58.2148 39.076 58.5508 39.076H59.3548V40H58.3708C57.7628 40 57.3068 39.86 57.0028 39.58C56.6988 39.3 56.5468 38.84 56.5468 38.2V34.324H55.6948V33.424H56.5468V31.768H57.6388V33.424H59.3548V34.324H57.6388ZM61.7699 34.492C61.9619 34.116 62.2339 33.824 62.5859 33.616C62.9459 33.408 63.3819 33.304 63.8939 33.304V34.432H63.6059C62.3819 34.432 61.7699 35.096 61.7699 36.424V40H60.6779V33.424H61.7699V34.492ZM70.9865 33.424V40H69.8945V39.028C69.6865 39.364 69.3945 39.628 69.0185 39.82C68.6505 40.004 68.2425 40.096 67.7945 40.096C67.2825 40.096 66.8225 39.992 66.4145 39.784C66.0065 39.568 65.6825 39.248 65.4425 38.824C65.2105 38.4 65.0945 37.884 65.0945 37.276V33.424H66.1745V37.132C66.1745 37.78 66.3385 38.28 66.6665 38.632C66.9945 38.976 67.4425 39.148 68.0105 39.148C68.5945 39.148 69.0545 38.968 69.3905 38.608C69.7265 38.248 69.8945 37.724 69.8945 37.036V33.424H70.9865Z" fill="#2680FA"/>
</svg>