<?xml version="1.0" encoding="utf-8"?>
<!-- Generator: Adobe Illustrator 24.1.2, SVG Export Plug-In . SVG Version: 6.00 Build 0)  -->
<svg version="1.1" id="Слой_1" xmlns="http://www.w3.org/2000/svg" xmlns:xlink="http://www.w3.org/1999/xlink" x="0px" y="0px"
	 viewBox="0 0 1420.6 1281.2" style="enable-background:new 0 0 1420.6 1281.2;" xml:space="preserve">
<style type="text/css">
	.st0{fill:#409ED8;}
	.st1{fill:#FEFEFE;}
</style>
<g>
	<path class="st0" d="M111.4,0c2.3,0,3.8,0,5.3,0c263.8,0,527.6,0,791.4,0.1c51.3,0,102.1,4.7,152.2,16.2
		c69.5,15.9,135.5,40.3,195.4,79.7c38.4,25.3,72,55.8,99.1,93.2c34.8,48.2,55.6,102,63.5,160.8c1.6,11.7,2.2,23.5,2.2,35.3
		c0.1,256.3,0.1,512.6,0.1,768.9c0,1.6,0,3.2,0,5.4c-2.4,0-4.2,0-6,0c-261.6,0-523.3,0-784.9-0.1c-60.7,0-120.6-6.4-179.5-21.7
		c-61-15.9-119-38.5-172-73.1c-46.4-30.3-85.6-68-115-115.4c-18.5-29.9-31.9-62.1-41-96.1c-7.4-28-11.1-56.2-11.1-85.3
		c0.3-254.1,0.2-508.3,0.2-762.4C111.4,4,111.4,2.4,111.4,0z M319.3,685.3c0,72.2,0,144.3,0,216.5c0,7,0,7,7.1,7
		c51.8,0,103.7,0.1,155.5-0.1c12.3,0,24.7-0.6,36.9-1.8c39.9-3.9,77.8-14.6,112.6-34.8c46.5-27,78.6-65.6,94-117.5
		c12-40.6,12.6-81.7,4.8-123.1c-11.5-61.5-44.8-107.3-100.4-136.4c-41.6-21.7-86.6-30.7-133-31.6c-57.6-1.1-115.3-0.4-173-0.5
		c-3.7,0-4.7,1.2-4.7,4.9C319.4,540.3,319.3,612.8,319.3,685.3z M736.7,908.3c1.5,0.3,2.2,0.5,2.8,0.5c36.8,0,73.7,0,110.5,0.1
		c3,0,4-1.4,4.9-3.8c9.7-26,19.5-52,29-78.1c1.5-4.2,3.5-5.9,8.2-5.9c53.7,0.2,107.3,0.1,161-0.1c4.7,0,6.4,2,7.8,5.8
		c10.2,26,20.5,52,30.6,78.1c1.2,3,2.7,4,5.8,4c37-0.1,74,0,111-0.1c1.2,0,2.4-0.3,3.9-0.6c-0.5-1.3-0.7-2.1-1-2.9
		c-9.3-22.6-18.6-45.2-28-67.8c-28.1-67.8-56.3-135.5-84.5-203.3c-23-55.5-46.1-111-69-166.5c-1.2-3-2.5-4.8-6.4-4.8
		c-32,0.2-64,0.1-96,0c-2.9,0-4.4,0.8-5.6,3.6c-11.7,28.3-23.6,56.5-35.5,84.7c-15.4,36.7-30.8,73.4-46.2,110
		c-12.6,29.9-25.2,59.8-37.7,89.8c-17.2,41-34.2,82-51.4,123C746.4,885.3,741.7,896.5,736.7,908.3z M1057.5,283.7
		c0.9,2.2,1.4,3.3,1.8,4.5c6.4,17.9,12.8,35.7,19.1,53.6c4.3,12.1,4.2,12,17.3,12.3c3.2,0.1,4.7-0.7,5.8-3.8
		c4.8-13.5,9.8-26.9,14.7-40.3c3.1-8.4,6.2-16.8,9.3-25.1c0.3,0.1,0.6,0.2,0.9,0.2c0,22.9,0,45.9,0,69c7.8,0,15.2,0,22.8,0
		c0.2-0.9,0.6-1.7,0.6-2.5c0-31.5,0-63,0.1-94.5c0-3.2-1.3-3.9-4.2-3.9c-8.2,0.2-16.3,0.4-24.5,0c-5.1-0.3-7.3,1.6-8.8,6.3
		c-5.4,17-11.3,33.8-17,50.6c-0.8,2.2-1.6,4.4-2.9,7.7c-1.1-2.7-1.8-4-2.3-5.4c-6.6-18.5-13.1-37-19.8-55.5
		c-0.5-1.4-2.1-3.5-3.3-3.6c-10.7-0.3-21.5-0.2-32.3-0.2c0,34,0,67.1,0,100.5c7.7,0,15.1,0,22.6,0
		C1057.5,330.8,1057.5,307.8,1057.5,283.7z M832.7,251c-27.3-0.1-46.3,9.8-54.2,26.2c-9.6,20.2-9.2,40.3,4,58.6
		c12,16.7,29.7,22.5,49.7,20.9c45.7-3.7,59.7-49.1,43.1-79.7C865.2,258.2,847.8,251.5,832.7,251z M975.5,311.5c2-1,3.2-1.6,4.4-2.2
		c11.5-5.8,16.9-15.1,16.1-27.9c-0.7-12.1-7.6-20.9-19.7-24.9c-4.2-1.4-8.7-2.4-13.1-2.5c-12.8-0.5-25.6-0.3-38.4-0.7
		c-4.5-0.2-5.6,1.3-5.6,5.6c0.2,29.8,0.1,59.6,0.1,89.4c0,1.9,0,3.9,0,5.5c8.4,0,15.9,0,23.9,0c0-11.7,0-22.8,0-33.9
		c0-5.2,2.9-7.3,7.4-5c1.5,0.7,2.5,2.6,3.4,4.1c5.7,10.5,11.3,21.1,17.1,31.6c0.7,1.3,2.1,3.2,3.3,3.3c8.7,0.3,17.4,0.2,27,0.2
		C992.4,339.4,984.1,325.6,975.5,311.5z M441.6,353.4c1,0.4,1.3,0.6,1.6,0.6c4.7,0.1,9.3,0.1,14,0.1c10.2,0,10.2,0,13.9-9.2
		c0.9-2.3,1.5-4.9,2.8-6.9c1-1.5,2.9-3.2,4.4-3.2c10.7-0.3,21.3,0,32-0.2c2.9,0,4.1,1.2,5,3.6c1.6,4.4,3.3,8.7,5.3,12.9
		c0.6,1.2,2.2,2.8,3.4,2.8c7.9,0.2,15.9,0.1,24.3,0.1c-0.6-1.7-0.9-3-1.4-4.1c-3-7.4-6.1-14.8-9.1-22.1c-9.8-23.7-19.7-47.3-29.4-71
		c-1-2.5-2.4-3.6-5.2-3.4c-5,0.2-10,0.3-15,0c-3.7-0.2-5.3,1.3-6.6,4.5c-8.7,21.1-17.7,42-26.5,63
		C450.6,331.6,446.2,342.3,441.6,353.4z M1286.2,354c-0.1-1-0.1-1.6-0.3-2.2c-13-31.5-26.1-63-39.1-94.5c-1.2-2.8-2.8-4.1-6-4
		c-4.6,0.3-9.3,0.3-14,0c-3.7-0.2-5.6,0.9-7.1,4.5c-9.3,22.6-18.9,45.1-28.3,67.6c-3.9,9.3-7.8,18.6-11.9,28.5c3.6,0,6.4,0,9.2,0
		c5.5,0,12.4,1.9,16.1-0.6c3.9-2.7,4.9-9.7,6.9-15c1-2.8,2.3-4,5.4-3.9c10.3,0.2,20.7,0.2,31,0c3.3-0.1,4.8,1.3,5.8,4.1
		c1.5,4.1,3,8.1,4.7,12.1c0.6,1.3,2,3.1,3.1,3.1C1269.8,354.1,1277.9,354,1286.2,354z M269.6,316.1c5.4,0,9.9,0.5,14.3-0.1
		c6.7-0.9,13.6-1.7,19.8-4c17.9-6.7,23.9-31.6,11.7-46.4c-6.5-7.9-15.5-10.9-25.1-11.4c-13.8-0.7-27.6-0.5-41.4-0.6
		c-1.2,0-2.4,0.6-3.3,0.9c0,33.4,0,66.3,0,99.5c8.1,0,15.8,0,24,0C269.6,341.3,269.6,329.1,269.6,316.1z M698.2,274.4
		c2.2,0,3.8,0,5.4,0c10.2,0,20.3-0.3,30.5,0.1c5,0.2,6.5-1.5,6-6.2c-0.3-3.1-0.3-6.3,0-9.5c0.5-4.3-1-5.7-5.5-5.7
		c-18.3,0.3-36.6,0.3-55,0c-5-0.1-6.1,1.5-6.1,6.2c0.2,28.1,0.1,56.3,0.1,84.4c0,3.3,0,6.5,0,9.8c8.6,0,16.3,0,24.5,0
		c0-13,0-25.6,0-38.8c13.1,0,25.7,0,38.7,0c0-5.6-0.1-10.6,0-15.5c0.1-3.2-1.1-4.4-4.4-4.3c-9,0.2-18,0.1-27,0.1c-2.4,0-4.8,0-7.4,0
		C698.2,287.9,698.2,281.6,698.2,274.4z M560.5,274.5c7.9,0,15.2,0.2,22.5-0.1c4.3-0.2,5.7,1.1,5.7,5.6c-0.2,23,0,46-0.2,69
		c0,4.4,1,5.9,5.5,5.4c4.6-0.5,9.4-0.5,14-0.1c4.1,0.4,5.1-0.8,5.1-4.8c-0.2-23.2,0.1-46.3-0.2-69.5c0-4.5,1.4-5.8,5.7-5.6
		c7.4,0.3,14.9,0.1,22.5,0.1c0-7.4,0-14.1,0-20.8c-27.1,0-53.7,0-80.6,0C560.5,260.6,560.5,267.2,560.5,274.5z M420.9,333
		c-11.5,0-22.2-0.2-32.8,0.1c-4.7,0.1-6.3-1.1-6.2-6c0.3-22.5,0.1-45,0.1-67.4c0-1.9-0.2-3.9-0.3-6.3c-7.6,0-14.8-0.1-21.9,0.2
		c-0.9,0-2.3,2.5-2.4,3.9c-0.1,31-0.1,61.9-0.1,92.9c0,2.9,0.9,4.1,4,4.1c18.6-0.1,37.3,0,55.9-0.2c1.2,0,3.4-1.7,3.5-2.6
		C421.1,345.6,420.9,339.7,420.9,333z"/>
	<path class="st0" d="M0.3,62c6.8,0,13.3,0,19.7,0c8.5,0,17,0.1,25.5-0.1c3.1-0.1,4.7,0.9,4.4,4.2c-0.1,1.8,0,3.7,0,5.5
		c0,267.8-0.1,535.7,0.1,803.5c0,21.3,5.3,41.9,10.8,62.3c12,44.5,32.7,84.7,61.9,120.3c25.8,31.4,56.7,57.1,91.1,78.5
		c40.4,25.2,83.9,43.4,129.4,57c34,10.2,68.6,17.8,103.8,22.4c31.3,4.1,62.7,5.4,94.2,5.5c160.5,0.2,321,0.3,481.5,0.4
		c108,0.1,216,0,324,0c0.8,0,1.7,0,2.5,0c9.6,0,9.6,0,9.6,10c0,11.3-0.3,22.7,0.1,34c0.2,5-1.5,6-6.2,6c-87.5-0.1-175-0.1-262.5-0.1
		c-179,0-358,0.1-537-0.1c-41.6,0-83.3-1.5-124.5-7.8c-37.9-5.8-75.2-14.6-111.7-26.2c-36.4-11.6-71.6-26.1-105.1-44.5
		c-57.2-31.2-106.7-71.5-144.6-125c-33-46.7-53.4-98.7-63.2-154.9c-2.9-16.8-4.2-33.6-4.2-50.7c0.1-265,0.1-530,0.1-795
		C0,65.8,0.2,64.2,0.3,62z"/>
	<path class="st1" d="M319.3,685.3c0-72.5,0-145-0.1-217.5c0-3.7,1-4.9,4.7-4.9c57.7,0.2,115.3-0.6,173,0.5
		c46.4,0.9,91.4,9.9,133,31.6c55.6,29.1,88.8,74.8,100.4,136.4c7.8,41.4,7.2,82.5-4.8,123.1c-15.4,51.9-47.5,90.5-94,117.5
		c-34.8,20.2-72.7,31-112.6,34.8c-12.2,1.2-24.6,1.8-36.9,1.8c-51.8,0.2-103.7,0.1-155.5,0.1c-7.1,0-7.1,0-7.1-7
		C319.3,829.6,319.3,757.5,319.3,685.3z M424.6,555.2c-0.1,1.9-0.3,3.4-0.3,4.9c0,83.5,0,167-0.1,250.5c0,4.3,1.6,5.3,5.5,5.2
		c15.8-0.2,31.7,0.1,47.5-0.1c20.9-0.4,41.5-2.5,61.6-8.8c44.7-14.1,72.7-43.3,81.6-89.9c4.2-22.4,4.1-44.8-0.4-67
		c-6-30.2-21-54.8-47.3-71.7c-22.3-14.3-47.2-20.9-73.2-22.3c-23.8-1.2-47.6-0.8-71.4-1.1C427.1,554.9,426.1,555.1,424.6,555.2z"/>
	<path class="st1" d="M736.7,908.3c5-11.8,9.7-23,14.3-34.1c17.1-41,34.2-82,51.4-123c12.5-29.9,25.2-59.8,37.7-89.8
		c15.4-36.7,30.8-73.4,46.2-110c11.8-28.2,23.8-56.4,35.5-84.7c1.2-2.8,2.7-3.6,5.6-3.6c32,0.1,64,0.1,96,0c3.8,0,5.1,1.7,6.4,4.8
		c23,55.5,46,111,69,166.5c28.1,67.8,56.3,135.5,84.5,203.3c9.4,22.6,18.7,45.2,28,67.8c0.3,0.7,0.6,1.5,1,2.9
		c-1.5,0.2-2.7,0.6-3.9,0.6c-37,0-74,0-111,0.1c-3.1,0-4.7-1-5.8-4c-10.1-26.1-20.4-52-30.6-78.1c-1.5-3.8-3.2-5.8-7.8-5.8
		c-53.7,0.2-107.3,0.2-161,0.1c-4.7,0-6.7,1.6-8.2,5.9c-9.5,26.1-19.4,52.1-29,78.1c-0.9,2.4-2,3.8-4.9,3.8
		c-36.8-0.1-73.7-0.1-110.5-0.1C738.9,908.8,738.3,908.5,736.7,908.3z M974.3,583.4c-0.4,0-0.7,0-1.1,0
		c-18.6,50.3-37.3,100.6-56,151.2c37.6,0,74.4,0,111.9,0C1010.6,683.8,992.5,633.6,974.3,583.4z"/>
	<path class="st1" d="M1057.5,283.7c0,24.2,0,47.1,0,70.2c-7.5,0-14.9,0-22.6,0c0-33.4,0-66.5,0-100.5c10.9,0,21.6-0.1,32.3,0.2
		c1.1,0,2.7,2.1,3.3,3.6c6.7,18.5,13.2,37,19.8,55.5c0.5,1.4,1.1,2.7,2.3,5.4c1.3-3.3,2.1-5.5,2.9-7.7c5.7-16.9,11.6-33.7,17-50.6
		c1.5-4.8,3.7-6.6,8.8-6.3c8.1,0.4,16.3,0.2,24.5,0c2.9-0.1,4.2,0.7,4.2,3.9c-0.1,31.5,0,63-0.1,94.5c0,0.8-0.3,1.6-0.6,2.5
		c-7.6,0-15,0-22.8,0c0-23.2,0-46.1,0-69c-0.3-0.1-0.6-0.2-0.9-0.2c-3.1,8.4-6.2,16.8-9.3,25.1c-4.9,13.4-10,26.8-14.7,40.3
		c-1.1,3.1-2.5,3.9-5.8,3.8c-13.1-0.4-13-0.2-17.3-12.3c-6.3-17.9-12.7-35.7-19.1-53.6C1058.9,287,1058.4,285.9,1057.5,283.7z"/>
	<path class="st1" d="M832.7,251c15.1,0.5,32.5,7.2,42.6,26c16.6,30.6,2.6,76.1-43.1,79.7c-20,1.6-37.7-4.1-49.7-20.9
		c-13.2-18.4-13.6-38.5-4-58.6C786.3,260.8,805.4,250.9,832.7,251z M827.3,272.8c-17,0-29,12.6-29.1,30.7c0,18.1,12,31.3,28.5,31.4
		c16.5,0.2,29.1-13.2,29.2-30.9C856,285.9,843.9,272.8,827.3,272.8z"/>
	<path class="st1" d="M975.5,311.5c8.6,14.1,16.9,27.8,25.7,42.4c-9.5,0-18.3,0.1-27-0.2c-1.1,0-2.6-1.9-3.3-3.3
		c-5.8-10.5-11.4-21.1-17.1-31.6c-0.8-1.5-1.9-3.4-3.4-4.1c-4.5-2.3-7.4-0.1-7.4,5c0,11.1,0,22.3,0,33.9c-8,0-15.5,0-23.9,0
		c0-1.6,0-3.5,0-5.5c0-29.8,0.1-59.6-0.1-89.4c0-4.4,1.1-5.8,5.6-5.6c12.8,0.4,25.6,0.2,38.4,0.7c4.4,0.2,8.9,1.2,13.1,2.5
		c12.2,4,19,12.8,19.7,24.9c0.8,12.8-4.6,22.2-16.1,27.9C978.7,309.9,977.5,310.5,975.5,311.5z M943,297.1c7-0.4,13.1-0.5,19.2-1.3
		c6-0.9,9.8-5.5,9.9-10.8c0.1-5.8-2.8-9.9-9.3-11c-5.7-1-11.6-0.7-17.4-0.8c-0.8,0-2.2,1.6-2.3,2.4C943,282.4,943,289.2,943,297.1z"
		/>
	<path class="st1" d="M441.6,353.4c4.6-11.1,8.9-21.8,13.4-32.5c8.8-21,17.8-42,26.5-63c1.3-3.2,3-4.7,6.6-4.5c5,0.3,10,0.2,15,0
		c2.8-0.1,4.2,0.9,5.2,3.4c9.8,23.7,19.6,47.4,29.4,71c3.1,7.4,6.1,14.8,9.1,22.1c0.5,1.2,0.8,2.4,1.4,4.1c-8.4,0-16.3,0.1-24.3-0.1
		c-1.2,0-2.8-1.6-3.4-2.8c-2-4.2-3.7-8.6-5.3-12.9c-0.9-2.5-2.1-3.7-5-3.6c-10.7,0.2-21.3-0.1-32,0.2c-1.5,0-3.5,1.7-4.4,3.2
		c-1.3,2-1.9,4.6-2.8,6.9c-3.7,9.3-3.7,9.3-13.9,9.2c-4.7,0-9.3-0.1-14-0.1C442.9,354,442.6,353.8,441.6,353.4z M495.5,282.2
		c-0.4-0.1-0.9-0.1-1.3-0.2c-4,10.8-7.9,21.5-12,32.7c8.6,0,16.4,0,25.1,0C503.2,303.6,499.3,292.9,495.5,282.2z"/>
	<path class="st1" d="M1286.2,354c-8.4,0-16.5,0.1-24.5-0.1c-1.1,0-2.6-1.8-3.1-3.1c-1.8-3.9-3.3-8-4.7-12.1c-1-2.8-2.5-4.2-5.8-4.1
		c-10.3,0.2-20.7,0.1-31,0c-3.1-0.1-4.4,1.2-5.4,3.9c-1.9,5.3-3,12.3-6.9,15c-3.7,2.6-10.6,0.6-16.1,0.6c-2.8,0-5.6,0-9.2,0
		c4.1-9.9,8-19.2,11.9-28.5c9.5-22.5,19-45,28.3-67.6c1.5-3.6,3.4-4.8,7.1-4.5c4.6,0.3,9.3,0.3,14,0c3.2-0.2,4.8,1.1,6,4
		c13,31.5,26.1,63,39.1,94.5C1286.2,352.4,1286.1,353,1286.2,354z M1220.3,314.7c8.6,0,16.4,0,25.1,0c-4.1-11.4-8-22.2-12.5-34.4
		C1228.4,292.6,1224.4,303.4,1220.3,314.7z"/>
	<path class="st1" d="M269.6,316.1c0,13,0,25.3,0,37.8c-8.3,0-16,0-24,0c0-33.2,0-66.1,0-99.5c0.9-0.3,2.1-0.9,3.3-0.9
		c13.8,0.1,27.6-0.1,41.4,0.6c9.7,0.5,18.6,3.5,25.1,11.4c12.3,14.8,6.2,39.7-11.7,46.4c-6.2,2.3-13.2,3.1-19.8,4
		C279.5,316.6,275,316.1,269.6,316.1z M269.4,284.9c0,3-0.2,6,0.1,9c0.1,1,1.2,2.9,1.8,2.9c6.7-0.5,13.6-0.6,20.1-2.3
		c4.7-1.3,6.3-6.1,5.8-11.1c-0.4-4.9-3.2-8-7.8-9.2c-2.6-0.7-5.2-1-7.9-1.1C269.4,272.7,269.4,272.8,269.4,284.9z"/>
	<path class="st1" d="M698.2,274.4c0,7.2,0,13.4,0,20.6c2.5,0,5,0,7.4,0c9,0,18,0.1,27-0.1c3.3-0.1,4.5,1.1,4.4,4.3
		c-0.2,5,0,9.9,0,15.5c-13,0-25.6,0-38.7,0c0,13.2,0,25.8,0,38.8c-8.3,0-16,0-24.5,0c0-3.2,0-6.5,0-9.8c0-28.1,0.1-56.3-0.1-84.4
		c0-4.7,1.1-6.3,6.1-6.2c18.3,0.3,36.6,0.3,55,0c4.5-0.1,6,1.3,5.5,5.7c-0.3,3.1-0.3,6.3,0,9.5c0.5,4.7-1,6.4-6,6.2
		c-10.1-0.4-20.3-0.1-30.5-0.1C702,274.4,700.4,274.4,698.2,274.4z"/>
	<path class="st1" d="M560.5,274.5c0-7.2,0-13.8,0-20.8c26.8,0,53.4,0,80.6,0c0,6.7,0,13.4,0,20.8c-7.7,0-15.1,0.2-22.5-0.1
		c-4.3-0.1-5.7,1.1-5.7,5.6c0.2,23.2,0,46.3,0.2,69.5c0,4-1,5.2-5.1,4.8c-4.6-0.5-9.3-0.5-14,0.1c-4.6,0.5-5.6-1-5.5-5.4
		c0.2-23,0-46,0.2-69c0-4.5-1.4-5.7-5.7-5.6C575.7,274.7,568.4,274.5,560.5,274.5z"/>
	<path class="st1" d="M420.9,333c0,6.6,0.2,12.6-0.2,18.5c-0.1,1-2.2,2.6-3.5,2.6c-18.6,0.2-37.3,0.1-55.9,0.2c-3.1,0-4-1.1-4-4.1
		c0.1-31,0-61.9,0.1-92.9c0-1.4,1.5-3.8,2.4-3.9c7.1-0.3,14.2-0.2,21.9-0.2c0.1,2.4,0.3,4.4,0.3,6.3c0,22.5,0.2,45-0.1,67.4
		c-0.1,4.9,1.5,6.2,6.2,6C398.7,332.8,409.4,333,420.9,333z"/>
	<path class="st0" d="M424.6,555.2c1.5-0.1,2.5-0.3,3.5-0.3c23.8,0.3,47.7-0.1,71.4,1.1c26.1,1.4,50.9,8,73.2,22.3
		c26.3,16.9,41.3,41.5,47.3,71.7c4.4,22.2,4.6,44.7,0.4,67c-8.8,46.6-36.9,75.8-81.6,89.9c-20,6.3-40.7,8.4-61.6,8.8
		c-15.8,0.3-31.7-0.1-47.5,0.1c-4,0-5.5-0.9-5.5-5.2c0.1-83.5,0.1-167,0.1-250.5C424.3,558.7,424.5,557.2,424.6,555.2z"/>
	<path class="st0" d="M974.3,583.4c18.2,50.2,36.4,100.5,54.7,151.3c-37.4,0-74.3,0-111.9,0c18.8-50.6,37.4-100.9,56-151.2
		C973.5,583.4,973.9,583.4,974.3,583.4z"/>
	<path class="st0" d="M827.3,272.8c16.6,0,28.7,13.2,28.6,31.2c-0.1,17.7-12.7,31.1-29.2,30.9c-16.6-0.2-28.6-13.4-28.5-31.4
		C798.3,285.4,810.3,272.8,827.3,272.8z"/>
	<path class="st0" d="M943,297.1c0-7.9-0.1-14.7,0.1-21.5c0-0.9,1.5-2.4,2.3-2.4c5.8,0,11.7-0.2,17.4,0.8c6.5,1.1,9.5,5.2,9.3,11
		c-0.1,5.3-3.9,10-9.9,10.8C956.2,296.7,950,296.7,943,297.1z"/>
	<path class="st0" d="M495.5,282.2c3.9,10.7,7.7,21.3,11.7,32.5c-8.7,0-16.4,0-25.1,0c4.1-11.2,8.1-22,12-32.7
		C494.6,282.1,495,282.2,495.5,282.2z"/>
	<path class="st0" d="M1220.3,314.7c4.2-11.3,8.1-22.1,12.7-34.4c4.4,12.2,8.3,23.1,12.5,34.4
		C1236.7,314.7,1228.8,314.7,1220.3,314.7z"/>
	<path class="st0" d="M269.4,284.9c0-12.2,0-12.2,12.1-11.8c2.6,0.1,5.3,0.5,7.9,1.1c4.6,1.2,7.4,4.2,7.8,9.2
		c0.4,5-1.2,9.8-5.8,11.1c-6.4,1.7-13.4,1.8-20.1,2.3c-0.5,0-1.7-1.8-1.8-2.9C269.2,290.9,269.4,287.9,269.4,284.9z"/>
</g>
</svg>
