<svg height="358.310155" preserveAspectRatio="xMidYMid meet" viewBox="0 0 555 713" width="279.08782" xmlns="http://www.w3.org/2000/svg"><g transform="matrix(.1 0 0 -.1 0 713)"><g fill="#231f20"><path d="m2355 7105c-33-13-71-24-85-24-92-3-163-58-216-167-33-70-37-74-90-93-92-35-149-68-182-106-34-39-66-95-75-136-5-20-17-29-61-42-29-10-59-23-65-31-8-9-32-11-90-8-115 7-200-29-236-99-10-18-40-40-89-65-126-63-176-109-229-212-47-90-81-128-169-189-41-28-48-37-57-85-8-39-22-65-46-91-31-33-35-43-35-92 0-30-7-72-16-94-22-55-5-135 42-196 19-25 49-65 68-90 29-38 33-49 26-74-7-26-3-68 14-132 7-24 5-27-28-33-20-4-60-20-90-35-29-16-70-34-90-41-52-17-96-64-96-103 0-41-7-50-55-75-84-42-113-98-89-168 9-26 12-49 7-53-4-4-25-20-46-35-34-25-37-31-31-61 3-20 0-43-9-61-20-40-8-65 53-111l52-38-5-63c-4-48-2-65 9-69 8-3 14-16 14-29 0-19-8-25-39-34-58-15-133-70-158-115-39-69-26-185 24-214 16-9 16-12-9-33-77-65-106-269-54-391 18-44 95-129 144-159l35-21-28-23-29-23 28-63c42-99 74-136 146-175 54-29 72-33 111-29 37 4 47 1 57-15 7-11 24-19 40-20 44-1 64-13 81-49 13-28 25-37 65-48 36-10 59-11 82-4 26 8 34 7 38-4 3-8 12-14 21-14 8 0 29-13 45-29 23-21 44-30 87-35 53-6 58-5 78 20 18 22 26 25 52 20 42-10 83 26 92 78 5 30 15 45 48 68l42 31 33-21c95-59 607-244 752-272 42-9 68-21 94-45l36-32 4-114c2-63-1-187-6-276-14-233-31-263-179-320l-78-31-920-51c-506-29-940-56-965-62-51-11-121-48-128-66-3-10 555-13 2767-13 1629 0 2772 4 2775 9 9 15-60 69-102 81-22 5-521 32-1110 59l-1070 50-69 34c-79 40-95 55-124 122-45 102-48 509-3 583 23 40 41 49 173 86 64 18 181 52 261 74s190 57 245 77c109 40 123 42 236 24 108-17 229 8 268 55 11 13 16 13 45-1 32-15 36-14 94 13 50 23 64 34 72 60l11 33 62-37c83-49 159-54 307-18 95 22 108 28 138 62 18 21 38 56 44 78 6 23 16 47 22 54 17 23 79 50 144 62 101 20 106 27 112 168 5 110 7 123 29 146 14 14 25 36 26 48 1 13 7 54 14 91 28 163-38 350-143 406-19 11-26 22-26 43 0 16-7 43-16 59-18 36-94 86-143 95-52 9-67 19-81 54-11 28-10 36 9 76 25 49 23 86-10 142-10 18-19 50-19 71 0 56-85 171-151 206-15 8-30 27-33 42-9 33-45 91-98 154-44 52-46 65-17 121 20 39 20 47 10 112-7 38-16 75-21 81-6 7 2 20 23 36 18 15 58 69 90 122 48 81 57 103 57 144 0 101-71 198-194 267-47 26-78 53-103 88-20 27-59 65-86 83-49 33-51 36-49 77 2 31-6 61-28 108-17 36-36 87-41 114-12 63-29 90-85 129-43 30-44 32-44 86-1 140-108 246-326 324-39 14-97 30-128 36-53 10-61 9-87-10-28-20-28-20-48 0-53 53-194 111-269 111-37 0-51 6-88 39-53 46-159 103-233 125-73 21-193 30-263 19-45-8-69-6-125 10-106 29-177 30-248 2zm-664-4203c28 16 32 17 55 1 31-20 29-57-3-61-12-2-59 7-104 19l-82 22 22 18c22 18 24 18 52 2 28-17 31-17 60-1zm453-8c25-9 62-14 81-12l35 4v-42c0-49-8-54-81-54-87 0-132 17-185 71l-48 49h75c43 0 96-7 123-16zm1211-17 60-13-60-16c-33-9-78-20-100-23-22-4-75-18-118-32-87-28-98-25-111 30-6 24-4 27 21 27 16 0 64 12 108 25 81 25 94 25 200 2z"/><path d="m30 665v-665h205 205l2 245 3 244 165 5c91 3 190 10 220 17 161 35 263 126 305 273 26 90 18 252-17 327-33 72-84 128-147 163-93 50-150 56-563 56h-378zm616 384c65-17 104-65 104-130 0-109-59-150-214-153l-91-1-3 148-3 147h81c45 0 101-5 126-11z"/><path d="m1370 665v-665l523 2 522 3 3 163 2 162h-320-320v500 500h-205-205z"/><path d="m2610 665v-667l363 5c331 4 369 6 446 26 104 27 170 64 238 133 106 109 145 204 164 393 30 313-60 567-245 687-122 79-141 82-578 86l-388 3zm615 350c147-39 192-136 183-397-4-111-8-142-27-186-43-98-95-122-258-122h-103v360 360h73c40 0 99-7 132-15z"/><path d="m4040 665v-665h165 165v497c0 273 2 494 4 492 3-2 57-209 121-459s121-472 126-493l10-38 152 3 152 3 125 487 125 487 5-487 5-487 168-3 167-2v665 665h-270-269l-10-37c-6-21-51-198-101-393-51-195-93-356-95-358s-6 5-9 15c-9 29-196 761-196 767 0 3-121 6-270 6h-270z"/></g><g fill="#897036"><path d="m3019 5474c-13-15-53-46-89-69s-98-69-138-103c-40-33-81-64-92-67-11-4-20-9-20-13s-10-18-23-32c-12-14-18-20-13-13s5 13 2 13c-4 0-2 9 4 20 12 22 1 27-19 8-11-11-11-9-1 10 11 22 10 23-12 17-20-7-21-6-9 9 19 22 8 30-21 15l-23-12 20 23 20 23-25-7c-14-3-19-3-12 0 21 10 13 26-10 19-20-5-21-4-5 5 19 12 24 35 5 24-10-6-10-5-1 7 19 24 1 42-31 29-15-5-50-10-77-10s-49-3-49-6 14-37 31-76 37-109 45-156c9-59 20-92 35-108 16-17 17-23 7-28s-10-7 0-12c17-8 15-31-3-38-8-3-15 0-15 6s-3 8-7 5c-3-4-12-2-20 4-10 9-13 8-13-2 0-9-3-9-12 3-17 21-48 31-48 15 0-8-3-9-8-1-11 17-42 13-43-5 0-10-4-7-10 7-7 19-14 22-31 16-13-3-25-11-27-16-1-5-9-1-17 9-8 11-13 13-14 5 0-9-5-10-19-2-14 7-21 6-24-3-3-7-6-4-6 6-1 10-7 17-13 15-7-3-33 4-57 15-36 16-45 17-52 6s-9-10-9 3c0 15-22 28-59 34-8 2-17 7-20 13-4 5-15 9-26 7-16-2-20-11-21-40-1-33 3-39 32-51 41-17 43-33 7-40-16-4-64-20-108-37-63-24-96-31-157-32-43 0-78-3-78-5s18-21 41-43c39-38 66-42 55-9-3 9 2 6 10-6 9-13 20-23 25-23s9 10 9 23v22l19-24c17-22 19-23 28-6 7 12 13 14 17 6 11-17 26-13 26 6 0 13 3 14 12 5 18-18 31-14 25 8-6 23 8 27 17 5 3-8 10-15 16-15 14 0 13 33-2 48-17 17 4 15 30-4 28-19 40-11 21 13-13 15-12 16 6 9 51-21 58-20 46 2-11 20-10 21 14 12 42-16 68-13 61 7-6 15-3 14 16-3 13-11 43-30 68-42 57-28 38-29-25-2l-47 20-96-36c-109-41-232-74-273-74-20 0-27-4-23-14 3-8 15-13 27-11s48 6 80 10c31 4 105 26 164 51 59 24 116 44 126 44 9 0 44-11 77-25 67-28 140-34 140-11 0 11-14 16-47 19l-48 3 49 2c30 1 57 9 68 19 10 9 42 18 73 21 47 4 61 1 93-21 22-14 46-42 56-66 22-47 31-49 86-21s61 43 13 36c-29-5-32-4-12 3 48 16 69 32 69 52s0 20-75 2c-11-2-2 6 19 19 55 32 55 44-1 41l-48-3 48 15c49 16 63 35 25 35-23 0-23 0 1 13 39 19 38 38-1 31-32-5-32-5 10 15 50 24 54 41 10 41l-33 1 33 14c34 15 39 24 21 42-9 9-7 10 10 6s21-1 21 18c0 18 2 21 9 10 8-12 14-10 35 10 14 13 26 33 27 44 1 17 2 17 6 3 7-28 22-21 32 15 5 17 10 24 10 15 1-10 5-18 11-18 13 0 24 46 16 66-5 14-4 15 9 4 8-7 15-19 15-26 0-38 39 14 41 54 0 12 3 11 9-5 13-33 30-28 30 9 0 25 3 29 12 20 21-21 38-14 38 16 1 25 2 26 14 9 14-18 16-18 41-1 14 9 24 22 22 28-3 10-106 85-118 86-3 0-16-12-30-26z"/><path d="m2601 5411c-11-7-8-18 14-60 54-98 79-96 39 3-27 68-30 71-53 57z"/><path d="m3124 5359c-10-12-69-59-130-105-116-87-172-142-198-193-22-42-23-331-2-331s26 33 26 183c0 102 4 145 15 167 16 32 69 76 165 140 60 40 159 135 160 153 0 14-17 7-36-14z"/><path d="m2170 5131c-14-27-13-36 4-22 12 10 13 8 8-11-4-19-3-21 9-11 11 9 14 7 14-13 0-17-4-23-15-18-26 10-134 34-150 33-18-1 86-35 151-50 41-9 51-8 80 11l34 22-33-4c-18-3-29-1-25 3s19 9 33 11c23 3 21 6-24 36-57 37-71 39-86 13z"/><path d="m2310 5083c57-60 61-63 85-63l20 1-20 11c-11 6-39 31-62 55s-48 43-55 43 8-21 32-47z"/><path d="m2676 4761c-18-7-18-8-2-14s56 7 56 18c0 7-32 5-54-4z"/><path d="m3398 4735c-20-14-48-25-62-25s-27-4-31-10c-3-5-12-7-20-4-7 3-24 0-37-7-24-14-139-19-131-6 8 14-21 7-39-10-18-16-18-16-12 2 6 15 4 17-12 10-10-4-37-8-59-9s-46-5-52-9c-7-5-13-5-13-1s-9-1-20-11c-20-18-20-19 15-47 29-25 35-36 35-69 0-52 16-50 23 2 8 59 26 73 20 15-6-48 10-65 20-23 4 12 12 30 20 41 12 16 13 14 9-18-5-46 8-46 32-1 23 42 29 41 17-3-12-41 3-42 24-3 21 41 32 45 27 10-3-22 0-29 12-29 9 0 16 8 16 19s4 22 9 26c5 3 9-8 9-23-1-16 2-34 6-41 13-21 26-11 26 22l1 32 14-32c15-36 34-44 36-15 1 11 4 8 8-8 9-33 41-40 42-8 1 21 1 21 11-5 10-27 11-28 29-11 18 16 19 16 13 1-4-13-1-17 14-17 12 0 23 9 27 20 8 24 23 27 21 4-2-28 20-26 34 3 13 27 14 27 18 6 2-13 7-23 11-23s13 10 19 23l11 22v-22c1-31 12-28 39 10 20 29 22 30 22 9 0-32 14-27 33 11 14 28 16 29 16 10 1-13 5-23 9-23 11 0 37 30 45 50 4 11 7 9 12-7 4-13 11-23 16-23 12 0 12 87 0 95-5 3-24-4-43-14-37-22-136-41-214-41-56 0-65 9-68 61-1 20 3 25 17 21 9-2 23 1 30 7 8 6 17 8 20 5 3-4 9 5 12 19 5 17 12 24 21 20 9-3 14 2 14 15 0 20-24 32-65 32-11 0-37-11-57-25z"/><path d="m3450 4640c-12-12-19-24-16-28 4-3 16 4 28 16s19 24 16 28c-4 3-16-4-28-16z"/><path d="m2906 4404c-4-9-4-19-1-22 2-3 7 3 11 12s4 19 1 22c-2 3-7-3-11-12z"/><path d="m1296 4375c-17-13-17-18-6-45 16-38 25-44 49-31 14 8 20 7 25-4 7-20 24-19 29 3 3 9 5 3 6-14 1-36 30-70 32-38 0 13 4 10 11-9 8-23 7-31-8-42-11-8-25-12-31-10-7 2-31-2-53-10-37-13-40-13-40 3-1 14-3 14-18-4-10-12-34-25-52-29-19-4-47-21-62-37-20-22-28-26-28-14 0 19 5 20-53-2-62-24-49-36 55-56 42-8 95-24 117-35l41-19 81 29c78 29 87 30 246 28 149-1 166 1 178 18 7 10 12 19 11 20s-20-2-42-8c-25-8-85-9-169-5-137 7-132 8-265-43-34-13-48-16-36-7 10 8 15 19 12 24s6 7 21 4c23-4 25-2 20 18-4 17-3 20 6 11 20-20 37-12 37 17 1 23 2 24 11 10 17-30 39-22 39 14 0 32 0 32 16 10 22-32 46-29 39 6l-6 27 16-27c15-28 45-38 45-17 0 8 5 8 15-1 8-7 21-10 30-7 8 4 17 2 20-3 4-6 13-10 22-10 12 0 14 7 9 33l-6 32 20-32c21-35 58-47 45-15-18 42-16 55 4 25 35-55 48-41 23 25-2 7 13-2 34-22 43-40 54-40 29-2-12 19-16 38-12 66 6 49-7 59-39 29-27-25-33-16-7 13 23 25 0 24-46-4l-36-22 19 22c22 25 22 25-21 13-26-8-31-7-26 5 4 11-3 13-31 10-20-3-41-8-46-11-6-3-10-2-10 4 0 5-13 12-30 16s-30 13-30 21c0 24-45 62-86 72-76 19-99 21-118 7zm329-145c-3-5-11-10-16-10-6 0-7 5-4 10 3 6 11 10 16 10 6 0 7-4 4-10z"/><path d="m1814 2855c-6-23-1-68 12-113 2-9-1-7-7 6-15 28-36 28-45 0-6-19-7-19-16-5-12 22-28 22-29 0 0-13-3-12-10 6-7 17-15 22-29 18-11-3-20-1-20 4 0 17-30 9-31-8 0-14-3-13-11 5-14 27-28 29-28 3s59-53 295-135c195-67 260-85 308-86 25 0 27 3 27 39 0 39-30 87-38 62-3-8-8-6-16 5-10 13-17 14-33 5-19-9-20-8-16 10 5 19 4 20-15 10-18-10-21-9-16 4 7 18-7 20-25 3-11-11-12-9-6 10 7 24-4 29-24 10-10-11-11-9-5 6 6 16 5 17-14 7-12-7-22-17-22-23s-3-9-6-6c-3 4 0 16 6 28 18 34 6 46-19 19-22-22-23-22-12-2 15 29 14 36-5 29-12-4-14-1-9 14 5 16 3 19-11 13-14-5-16-3-11 11 5 13 3 17-7 13s-13-1-9 9c3 7 0 14-6 14s-11-8-11-17c0-15-2-16-10-3s-11 13-19 1c-6-10-12-4-22 23-15 42-26 46-35 11z"/><path d="m3365 2814c-16-9-45-18-64-20-18-3-41-8-50-13s-34-12-56-16c-49-8-61-18-86-68-29-55-19-65 26-26l38 34-6-27c-6-21-4-28 8-28 8 0 15 6 15 13 0 6 9 23 20 37 19 24 19 24 13 3-4-17-1-23 11-23 9 0 16 6 16 14s9 24 20 37l19 24-6-37c-7-49 12-50 31-3 17 41 25 45 18 10-6-35 13-31 28 5 7 17 18 30 26 30 15 0 19 6 28 43 8 32-4 35-49 11z"/><path d="m2492 2658c-7-7-12-26-12-44 0-39-25-65-33-34-3 12-13 20-26 20-17 0-22-8-27-40-4-24-12-40-20-40-17 0-20-75-3-85 6-5 8-22 4-46-4-26-3-45 5-54 10-12 9-16-4-21-25-10-17-144 9-144 11 0 15-13 14-52-1-29-4-66-8-83-6-26-7-28-14-10-13 31-27-1-27-60 0-28-4-66-10-84-11-41-56-91-81-91-10 0-24-7-33-15-8-8-21-15-29-15s-27-12-43-26l-29-25 45 5c25 3 85 8 133 12 81 5 92 9 125 37 20 18 33 25 30 17s-9-23-14-34c-6-16-2-18 47-15 54 4 96 29 84 49-4 6 1 10 9 10 19 0 21 16 4 23-10 4-10 6 0 6 6 1 12 10 12 21s4 20 9 20c12 0 22-55 15-89l-6-29 83-4c89-4 119-1 119 13 0 5-12 12-26 15-26 7-26 7-5 18 18 10 19 14 9 27-7 9-24 23-38 33l-24 16h27c30 0 35 11 12 30-12 10-13 15-4 21 10 6 10 11 0 23-7 8-10 20-6 26s-4 23-16 37c-20 22-21 25-5 19 13-4 17-2 13 7-22 57-13 235 12 260 7 7 18 4 32-9l22-19-6 75c-5 75-33 160-52 160-6 0-23 29-39 65-19 45-34 65-46 65-39 0-43-23-37-182 5-96 4-148-2-143-6 6-11 35-13 65l-3 55-50 16-50 16 37 12c46 15 57 30 33 47-12 9-15 17-8 26 16 22 13 58-5 59-11 0-12 3-4 6 18 7 14 23-6 23-11 0-24 11-30 25-13 27-31 32-50 13z"/><path d="m2796 2078c-15-25-10-103 13-185 11-39 31-60 31-32 0 5 5 7 10 4 6-4 10 31 10 98 0 88-3 106-18 120-24 22-29 21-46-5z"/><path d="m2904 2034c-8-30 10-246 21-264 12-20 88-50 128-50 20 0 37 2 37 4 0 3-22 35-50 71-32 42-55 86-65 123-24 87-46 142-56 142-5 0-12-12-15-26z"/></g><g fill="#0e8a4a"><path d="m2380 7065c-102-23-218-86-297-160-37-36-81-71-98-79-37-18-108-90-128-132-9-17-21-51-27-76-10-40-16-47-43-52-49-10-97-54-126-115-22-48-26-70-26-152-1-96-1-97-33-124-17-14-37-44-43-66-7-21-18-39-26-39-34 0-61-136-42-215 6-28 12-58 13-68 3-28 44-76 71-83 30-7 30-12 5-44-25-33-26-99-1-148 20-38 94-115 121-125 8-4-10-3-40 0-115 12-200 63-216 129-7 26-1 96 11 132 6 19-1 31-48 75-81 77-92 108-59 167 17 30 17 31-6 50-18 15-21 23-13 38 13 25 3 62-18 63-11 0-9 4 7 11 19 9 22 17 17 37-4 14-11 29-17 32-12 8 9 29 61 62 48 31 58 50 43 81-15 34-67 37-75 5l-6-21-31 22-32 23-42-30c-23-17-59-33-79-37-43-8-61-35-87-131-16-57-20-62-75-94-31-18-75-51-97-73-46-46-88-133-88-182 0-18-7-54-16-80-26-77-15-188 29-281 35-72 35-76 30-168-5-87-4-96 17-124 18-25 35-33 84-44 56-11 58-13 31-20-16-3-52-7-80-8-52-1-288-72-321-96-15-10-19-26-18-73l1-59-41-19c-59-28-76-58-83-147-4-56-10-77-20-77-19 0-25-22-14-51 7-19 5-29-12-46-21-24-34-103-23-147 3-13 17-38 31-54 21-25 24-34 15-57-5-14-10-48-10-74v-48l45-6c39-6 48-3 69 18 14 14 31 25 39 25 20 0 53 39 72 85 33 81 89 118 134 88l26-17-44-8c-24-4-49-15-57-25-20-26-34-81-34-135 0-44-2-47-34-58-18-6-38-21-44-34-9-20-20-24-77-29-84-6-114-27-136-92-9-26-24-52-33-57-12-7-16-24-16-67 0-45-6-70-27-107-26-46-28-57-28-161 1-103 2-113 23-130 13-10 29-36 36-58 9-27 23-45 42-54 16-7 39-22 50-33 20-18 27-19 103-7 45 6 85 9 88 6 3-4-2-18-12-33-14-22-15-26-3-21 10 3 28-12 52-44 47-61 101-109 124-109 10 0 29 8 42 17 26 18 68 19 112 2 23-9 31-7 57 17 35 31 40 48 12 39-20-6-24 3-38 87-9 59-8 81 4 85 7 3 13-1 13-9 0-7 30-31 67-53 53-32 72-49 90-87 28-57 69-72 111-41 36 27 37 39 4 46-30 6-142 100-142 119 0 6 14 8 33 5 37-6 63 5 53 21-3 6-29 18-56 27-53 18-81 41-35 29l27-7-16 31c-9 17-21 32-28 35-10 4-10 6 0 6 7 1 12 14 12 31s6 45 14 64c15 35 81 96 106 96 21 1 61 38 88 83 13 20 28 37 32 37 5 0 12 15 15 34 15 77-80 204-205 274-58 33-62 37-40 42 25 6 25 6-5 13-46 10-63 23-47 39 6 6 12 18 12 25 0 19-71 63-103 63-15 0-26 4-23 9s-10 18-29 30c-25 14-35 27-35 45 0 13-3 31-6 39-11 30 29 28 75-4 25-17 47-27 48-22 2 6 19-5 37-23 36-36 55-41 87-24 23 13 24 38 3 68-20 28-47 120-39 132 3 6 17 10 31 10 26 0 64-49 64-82 0-14 7-16 37-11 47 7 47 7 35 29-7 12-6 25 1 41 15 33 27 28 27-9v-33l68-1c57 0 81-7 161-44 100-45 125-49 281-41l65 3 71 69c75 72 127 101 229 125 128 30 228 6 269-64l19-34-44 31c-77 54-178 62-309 25-53-15-132-62-85-51 11 3 29 8 40 12 11 5 0-7-25-25-90-65-160-148-160-189 0-19 32-41 62-41h30l-25-30c-32-38-44-87-26-106 12-11 26-7 84 22 72 35 143 59 152 51 2-3-13-10-34-17s-64-29-96-49c-49-30-63-45-86-96-19-41-38-66-60-78l-32-19 21 42 22 42-94-4c-107-4-148-22-186-79-16-23-34-36-59-42-52-11-88-41-116-98-14-27-37-59-51-70-15-12-33-33-41-48-9-18-27-32-55-40-33-10-40-16-34-29 4-9 18-46 31-81 13-36 39-81 57-101 21-23 35-52 39-78 4-22 18-53 31-69l24-29 139 2c146 3 201-7 251-46 14-12 40-20 60-20h36l-32 33c-18 18-32 37-32 42s5 4 12-3c17-17 93-15 108 2 9 12 3 19-37 40l-48 26 40-1c62-2 65-1 65 26 0 25 33 52 58 47 7-2 21 7 31 20 19 22 19 22 56 5 20-9 41-15 46-12 11 7 25-29 44-109 16-67 25-76 76-76 33 0 40-5 69-50 37-58 78-76 122-54 34 17 38 17 38 0 0-15 53-32 69-21 6 3 8 12 4 20-8 22 16 45 46 45 23 0 31-9 54-55 34-69 86-100 156-92 37 4 51 12 78 44 73 85 73 86 104 79 21-4 29-2 30 9 1 8 2 20 3 27 0 6 13 15 28 19 14 4 48 23 74 43 27 21 58 36 74 36s39 12 58 30c17 16 38 27 46 24 15-6 72 59 100 113 23 47 21 90-6 104-33 17-33 17-8 44l23 24-36 21c-24 15-34 26-30 37 5 13 0 14-35 8-40-6-57 4-32 20 5 3 10 12 10 20s4 25 10 39c8 23 12 25 35 16 15-6 57-13 94-16l69-7 52-105c60-121 60-116 5-293-35-110-38-142-11-103 8 10 23 30 33 43l20 25 45-37c25-20 52-37 61-37 25 0 46 28 58 76 12 47 48 84 80 84 16 0 19-8 19-49 0-56 10-68 68-77l42-7-1 39c0 22-4 63-8 92-6 45-5 55 10 63 27 14 95 11 136-6 57-24 105-20 135 13 35 38 48 65 48 104 0 52-23 76-76 80l-46 3 26 35c105 144 112 163 80 208-15 21-14 29 1 95 9 40 26 84 36 99 26 37 24 57-6 68-21 8-241 49-271 50-5 1 18 15 50 31l59 31 121-7c102-6 123-10 134-26 22-31 48-40 148-48 106-9 138-27 149-85 3-17 22-66 42-108l37-78-22-51-21-51 21-18c34-27 17-60-67-129-41-33-75-66-75-71s23-12 50-16c54-7 70-23 70-68 0-16-9-32-25-42-38-25-30-31 33-23 31 4 103 8 160 8 81 1 102 4 102 15 0 18 57 48 66 35 3-5 13-5 25 1 14 8 19 21 19 55 0 37-6 52-35 84-42 47-44 70-6 113 15 18 28 40 29 48 0 8 4 25 7 37 6 18 2 25-18 34-18 8-28 24-36 53-7 29-19 46-40 59-16 9-41 31-55 47-13 17-30 30-36 30-8 0-9 10-5 30 7 30 7 30-40 30-45 0-46 1-43 27s0 28-65 43c-64 14-67 16-51 32 16 15 16 19 1 41-10 16-29 26-55 31l-39 6 3 45c3 25-2 60-10 80-8 19-12 36-8 39 4 2 35 10 69 16 41 8 60 16 57 25-8 21-73 45-120 45h-46l21 36c12 19 19 39 16 43-2 5-31 11-65 14l-60 7-42-46c-70-76-73-82-52-105 17-19 17-20-4-41-20-21-25-21-68-10-25 7-49 10-54 7s-17-31-27-63c-21-71-20-70-39-44-20 29-35 28-146-7-51-16-104-31-118-35-16-3-29-16-36-35-9-23-19-30-53-36-58-10-92 0-221 66-123 63-170 73-170 39 0-10-8-24-19-29-15-8-17-19-14-58 3-29-1-62-9-83l-15-35-6 42c-7 44-48 87-99 105-21 8-28 17-28 36 0 15-4 32-8 38-15 22-139 83-183 89-42 6-48 10-53 37-3 17-6 35-6 41s34 8 98 3c308-19 365-19 427 0l60 18-145 7c-80 4-172 12-205 18-46 9-86 8-184-4-150-19-171-26-171-59 0-29-3-31-53-40l-38-7 65 64c59 58 66 69 66 104 0 31-7 46-31 69-17 16-36 43-43 59-23 53-48 67-127 71-40 2-77 8-83 14-5 5-20 10-33 10-16 0-28 11-43 39-30 60-82 95-140 95-68 0-93-21-124-102-15-38-38-80-51-92-20-19-25-33-25-74v-51l-53-16-53-15 18 34c9 19 15 39 12 43-10 16-52 10-56-8-2-13-9-8-25 19-28 48-90 69-112 38-7-11-24-20-37-20-21 0-24-5-23-32 0-18 4-42 8-53 7-17 2-22-43-36l-51-17-2 32c-4 44-24 137-36 161-12 25-43 55-56 55-5 0 2-26 17-57 23-50 27-71 27-148 0-57-6-110-17-145l-17-56-83-15-82-15-89 33c-50 18-96 33-104 33-9 0-4 9 12 23 15 12 30 38 34 57l8 35 8-42c4-24 11-43 16-43s9 5 9 10c0 6 10 8 24 4 22-5 26 0 44 48 23 58 26 56 13-11-8-38-6-44 9-48 11-3 16-11 13-19-10-26 7-35 38-18 29 14 30 17 23 61-8 51 5 53 26 3 7-16 16-30 21-30 25 0 39 89 19 120-12 19 7 31 37 24l22-6-15 63c-8 34-24 79-36 98-33 54-126 148-191 194-31 22-56 42-53 44 2 2 29-6 61-18 44-16 71-20 114-16 89 8 153 47 79 47-30 1-27 3 22 20 43 15 68 33 123 91 65 69 69 75 63 110-5 34-4 37 27 45 21 6 37 20 48 42l17 32 6-33c5-28-1-64-30-164-5-19-1-23 33-28 21-4 53-11 72-16 19-4 37-6 39-4 5 5-83 45-99 45-12 0-12 0 11 45 23 44 25 96 6 140-12 30-3 80 25 129 9 15 4 25-28 60-101 106-113 189-45 306l26 45 8-61c10-74 28-120 64-164 25-29 30-31 73-25 40 5 50 3 76-19 35-30 33-30 76-12 19 7 57 12 84 11 34-2 56 2 68 13 23 20 22 28-9 86-14 26-21 45-14 41 10-6 90 9 192 36 70 18 116 114 72 150-14 11-13 14 10 26 14 8 26 19 26 25s11 21 25 34 25 34 25 48c0 32-40 137-54 141-45 13-45 13 10 68 42 42 54 61 54 85 0 26 5 31 30 37 60 13 102-46 87-123-3-17 2-39 16-61l21-34 26 31c15 18 30 32 33 32 4 0 7-25 7-55 0-50 2-55 22-55 13 0 39 20 67 50l46 50 12-30c9-24 17-30 41-30 16 0 40-8 53-18 39-30 60-34 86-16 20 13 24 22 21 47-3 18-8 39-12 47-4 11 2 19 24 27 16 6 30 19 30 27 0 13 4 15 19 6 35-18 40-11 23 31-17 43-53 69-97 69-17 0-25 5-25 18 0 9-16 37-35 61s-35 48-35 52c0 5 14 24 30 42 36 42 37 63 5 126-38 76-88 110-211 141-37 9-45 17-67 63-30 60-94 128-142 151-45 21-104 20-172-4l-56-20-22 24c-59 63-170 87-285 61zm-240-2535c0-5-5-10-11-10-5 0-7 5-4 10 3 6 8 10 11 10 2 0 4-4 4-10zm326-212c29-32 64-117 64-155 0-8 12-13 30-13 41 0 181-48 205-71 15-15 16-19 5-19-28 0-84 20-91 32-4 6-30 12-57 13-28 1-57 7-66 14s-28 11-42 8c-29-5-72 22-53 34 7 4 6 16-5 37-9 17-16 40-16 51 0 27-46 61-84 61-31 0-31 0 19 33 28 18 52 28 54 22 2-5 19-27 37-47z"/><path d="m3630 6676c0-18-13-60-30-92l-29-58 34-31c43-40 53-76 30-111-16-25-16-28 3-63 43-76 46-195 8-269-20-39-87-98-133-118-28-12-58-15-113-11-72 5-77 4-108-24-18-16-32-34-32-41 0-17 61-58 86-58 11 0-2-12-33-29-117-64-193-135-193-179 0-24 25-46 40-37 8 5 9-3 5-27-5-26-2-39 10-51 23-24 30-22 74 23 21 22 41 40 45 40 12 0 6-52-10-83-10-18-34-57-55-87s-45-80-54-111c-14-49-20-57-44-62-54-11-85-99-61-172 10-31 16-36 36-32 20 3 24 0 24-19 0-13 5-24 10-24 6 0 10-7 10-15 0-25 38-92 55-99 9-3 32 1 52 9 44 19 43 19 43-4 0-25 36-51 70-51 32 0 158 33 188 49 21 11 21 10 12-14-28-73 3-106 99-108 53-1 67-16 16-17-18-1-16-4 10-27 17-15 29-30 27-35-1-4 3-8 9-8 18 0 38-32 39-62 0-21-10-33-45-55-51-32-55-40-21-45l25-3-29-65c-16-36-30-70-30-77 0-16 101-37 136-29 29 8 94 66 94 86 0 6-14 16-30 22-29 9-50 34-50 57 0 6 14 4 35-5 46-19 68-18 89 5 17 18 16 21-7 67l-24 48 30 25c16 14 37 25 47 26 19 2 80 42 80 54 0 4-9 16-20 26s-17 22-14 27-1 15-11 21c-10 8-14 19-9 30 5 14 9 15 21 6 11-10 23-3 63 36 41 40 48 53 44 74-10 44-28 63-73 80-73 27-77 56-13 90 12 6 22 15 22 19s-28 18-62 31c-75 29-94 44-119 94l-19 37 32 1c50 2 83 13 83 29 0 8 4 18 9 21 16 12-4 58-40 95-37 36-58 40-106 19-13-5-18-3-18 10 0 9-26 42-57 74-75 74-112 85-270 79-87-3-127-9-152-22l-34-18 21 29c63 88 154 134 281 140 57 3 104-1 140-10l53-15-5 38c-7 57-53 150-94 192-39 40-94 65-115 52-7-4 8 18 32 49 35 45 51 57 73 57 71 0 155-68 202-164 15-31 35-62 44-69 24-18 81-103 81-121 0-28 19-27 53 4 45 39 40 61-29 133-68 73-74 94-40 160 32 65 41 109 27 134-5 11-42 39-81 62-38 23-70 44-70 48 0 3 11 18 25 35 14 16 25 37 25 45 0 27-78 92-163 135l-82 42 78 18c71 17 80 17 110 3 18-9 55-47 86-90 30-41 59-75 64-75 14 0 0 84-19 122-45 86-183 176-313 204-86 18-81 19-81-20z"/><path d="m4308 5797-28-72 26-21c24-20 25-24 13-42-8-10-29-31-46-46-40-34-43-69-8-117 13-19 32-44 41-56 15-21 15-25-1-49-14-22-15-28-4-35 8-5 21-9 30-9 30 0 99-60 121-105s38-58 38-31c0 8-8 24-19 37l-19 23 53 37c82 59 135 141 135 209 0 82-107 206-182 212-22 2-27 8-32 39-6 38-54 99-78 99-7 0-25-32-40-73z"/><path d="m2926 5643-58-58h-84c-46 0-84-3-84-6 0-18 54-31 103-26 92 9 213 83 205 125-6 29-23 22-82-35z"/><path d="m2718 5497c-15-12-37-30-50-39-16-12-18-17-8-17 20-1 110 56 110 69 0 17-23 11-52-13z"/><path d="m4368 4890c-16-5-28-6-28-2 0 3-11-5-25-18s-24-29-22-34c2-6-4-27-15-46-10-19-18-42-18-51s-15-36-32-60c-18-24-42-65-55-91-14-32-38-59-68-80-33-23-42-34-30-36 24-5 88 42 149 112 49 57 64 78 123 188 12 22 39 55 60 73s36 35 33 38c-12 11-47 14-72 7z"/><path d="m4550 4753c-39-14-100-47-100-55 0-4 9-8 20-8s65-22 120-50c55-27 102-50 105-50 7 0-60 129-78 153-14 17-38 21-67 10z"/><path d="m3525 4692c-29-18-70-60-50-51 50 22 85 45 85 56 0 16 1 17-35-5z"/><path d="m1810 4047c0-27 17-47 40-47 13 1 12 3-2 14-10 7-18 23-18 35 0 11-4 21-10 21-5 0-10-10-10-23z"/><path d="m4540 3409c-37-15-70-50-70-74 0-12 11-32 25-45s25-34 25-47c0-14 6-23 15-23 25 0 17-17-20-47-19-15-35-31-35-35 0-5 24-8 54-8 51 0 55 2 88 43 28 35 33 48 28 77-4 29-10 36-35 40-26 5-30 10-30 35 1 17 4 45 8 63 7 35-4 40-53 21z"/><path d="m4294 3275c-11-23-26-38-45-43-31-8-28-18 13-45 33-21 58-21 103-3 37 16 46 43 18 53-29 10-53 35-53 55 0 29-18 21-36-17z"/><path d="m4797 3153c3-21 8-40 10-43 3-3 31-5 64-5 42 1 64 6 76 18 22 22 4 44-23 29-14-8-30-4-66 14-63 32-68 31-61-13z"/><path d="m3580 3030c0-35 71-130 97-130 7 0 13-4 13-9s14-11 30-15c19-3 34-15 42-31 15-33 25-32 30 5 4 23-2 36-27 60-17 16-41 30-53 30-14 0-30 13-47 40-31 49-85 81-85 50z"/><path d="m2202 2988c15-23 120-82 203-114 38-14 52-15 83-6 33 10 39 9 62-13 20-19 37-25 73-25 54 0 63 15 14 24-19 3-65 22-103 41-50 26-82 35-117 35-33 0-58 7-77 20-32 23-80 44-124 54-29 7-29 7-14-16z"/><path d="m2997 2944c-27-14-47-28-44-30 11-11 75 9 103 31 25 21 26 24 9 24-11 0-42-11-68-25z"/></g></g></svg>