<?xml version="1.0" standalone="no"?>
<!DOCTYPE svg PUBLIC "-//W3C//DTD SVG 20010904//EN"
 "http://www.w3.org/TR/2001/REC-SVG-20010904/DTD/svg10.dtd">
<svg version="1.0" xmlns="http://www.w3.org/2000/svg"
 width="540.000000pt" height="589.000000pt" viewBox="0 0 540.000000 589.000000"
 preserveAspectRatio="xMidYMid meet">
<metadata>
Created by potrace 1.14, written by Peter Selinger 2001-2017
</metadata>
<g transform="translate(0.000000,589.000000) scale(0.100000,-0.100000)"
fill="#CE1719" stroke="none">
<path d="M2657 5743 c-26 -82 -132 -409 -236 -728 l-188 -580 -773 -3 -772 -2
128 -93 c147 -106 654 -475 759 -552 39 -28 134 -98 213 -155 78 -57 142 -108
142 -113 0 -8 -36 -119 -346 -1074 -68 -211 -124 -385 -124 -388 0 -3 17 7 38
23 20 17 301 222 625 456 l588 427 347 -253 c191 -138 470 -341 620 -451 151
-109 275 -197 277 -195 3 2 -43 150 -101 328 -300 923 -364 1122 -364 1129 0
4 177 136 393 293 215 157 493 359 617 449 l225 164 -768 5 -768 5 -49 150
c-94 290 -312 962 -368 1133 -31 94 -59 172 -62 172 -4 0 -28 -66 -53 -147z
m159 -1818 c55 77 138 193 185 257 l84 118 610 0 c344 0 605 -4 600 -9 -6 -4
-158 -57 -340 -115 -842 -274 -1134 -369 -1179 -385 l-50 -18 240 -78 c131
-42 266 -86 300 -96 58 -18 61 -21 73 -61 13 -44 195 -607 301 -933 33 -98 58
-181 56 -183 -4 -3 -93 117 -612 832 l-369 509 -5 -318 -5 -319 -485 -352
c-266 -194 -486 -351 -488 -349 -2 2 213 301 478 665 264 364 479 664 477 667
-3 2 -131 -36 -286 -86 -154 -50 -288 -91 -296 -91 -15 0 -977 695 -983 710
-2 4 14 2 35 -5 42 -14 1298 -424 1450 -473 l93 -30 -22 32 c-13 17 -95 130
-182 251 -88 121 -160 227 -160 235 1 8 49 164 108 345 59 182 142 436 184
565 l77 236 5 -830 5 -831 101 140z"/>
<path d="M1715 1410 c-148 -24 -306 -103 -372 -187 -60 -75 -76 -121 -81 -220
-12 -254 119 -372 503 -453 227 -48 285 -82 285 -169 0 -136 -298 -174 -558
-70 -41 16 -105 49 -143 74 -38 25 -76 45 -84 45 -13 0 -15 -27 -15 -165 l0
-164 108 -34 c161 -51 236 -62 422 -61 134 1 180 5 243 22 257 70 403 247 383
467 -8 87 -51 181 -104 225 -20 17 -73 49 -117 70 -72 35 -132 52 -401 114
-126 30 -169 64 -167 133 4 135 289 177 530 78 67 -27 150 -72 158 -86 4 -5
15 -9 26 -9 19 0 19 7 17 157 l-3 156 -55 19 c-154 52 -431 80 -575 58z"/>
<path d="M0 711 l0 -681 175 0 175 0 0 219 0 219 183 4 c208 6 272 21 373 86
146 95 214 223 214 402 0 176 -67 293 -210 365 -108 55 -136 58 -537 63 l-373
4 0 -681z m662 392 c30 -14 56 -35 73 -62 25 -37 27 -47 23 -115 -2 -56 -9
-82 -24 -103 -51 -69 -125 -93 -284 -93 l-100 0 0 201 0 201 133 -4 c108 -3
140 -7 179 -25z"/>
<path d="M2600 711 l0 -681 175 0 175 0 0 250 0 251 82 -3 82 -3 182 -245 181
-245 212 -3 c116 -1 211 0 211 3 0 2 -99 132 -220 287 -121 156 -220 286 -220
290 0 4 18 17 39 28 70 35 155 123 186 192 37 81 46 215 21 300 -29 101 -126
187 -259 231 -57 19 -92 21 -454 25 l-393 4 0 -681z m646 414 c75 -22 107 -61
112 -135 5 -73 -8 -109 -58 -154 -47 -42 -106 -56 -245 -56 l-105 0 0 180 0
180 123 0 c80 0 141 -5 173 -15z"/>
<path d="M3970 710 l0 -680 165 0 165 0 2 450 3 451 123 -291 124 -291 121 3
122 3 120 282 c66 155 123 285 128 289 4 4 7 -196 7 -444 l0 -452 170 0 170 0
0 680 0 680 -202 -2 -203 -3 -152 -339 -151 -339 -29 64 c-16 35 -85 189 -153
342 l-125 277 -202 0 -203 0 0 -680z"/>
</g>
</svg>
